<?xml version="1.0" encoding="UTF-8" standalone="no"?>
<svg
   xmlns:dc="http://purl.org/dc/elements/1.1/"
   xmlns:cc="http://creativecommons.org/ns#"
   xmlns:rdf="http://www.w3.org/1999/02/22-rdf-syntax-ns#"
   xmlns:svg="http://www.w3.org/2000/svg"
   xmlns="http://www.w3.org/2000/svg"
   viewBox="0 0 1122.52 793.70667"
   height="793.70667"
   width="1122.52"
   xml:space="preserve"
   id="svg2"
   version="1.1"><metadata
     id="metadata8"><rdf:RDF><cc:Work
         rdf:about=""><dc:format>image/svg+xml</dc:format><dc:type
           rdf:resource="http://purl.org/dc/dcmitype/StillImage" /></cc:Work></rdf:RDF></metadata><defs
     id="defs6" /><g
     transform="matrix(1.3333333,0,0,-1.3333333,0,793.70667)"
     id="g10"><g
       transform="scale(0.1)"
       id="g12"><path
         id="path14"
         style="fill:#993921;fill-opacity:1;fill-rule:nonzero;stroke:none"
         d="m 2422.39,3895.86 c -48.07,10.04 -97.84,15.38 -148.84,15.38 -399.15,0 -721.7,-323.2 -721.7,-723.28 0,-399.98 322.55,-723.24 721.7,-723.24 53.27,0 105.17,5.93 155.22,16.86 -267.26,123.86 -452.31,394.17 -452.31,708.59 0,311.92 182.08,580.51 445.93,705.69" /><path
         id="path16"
         style="fill:#ffffff;fill-opacity:1;fill-rule:nonzero;stroke:none"
         d="m 2757.42,3911.24 c 398.83,0 724.28,-322.26 724.28,-721.07 0,-398.84 -325.45,-721.1 -724.28,-721.1 -398.83,0 -721.09,322.26 -721.09,721.1 0,398.81 322.26,721.07 721.09,721.07" /><path
         id="path18"
         style="fill:#000000;fill-opacity:1;fill-rule:nonzero;stroke:none"
         d="m 2971.2,2922.13 v 22.34 c 51.05,0 79.76,22.36 79.76,54.26 v 449.86 h -89.34 v 25.52 h 370.12 v -130.8 h -19.14 c 0,51.05 -31.91,105.28 -89.35,105.28 h -95.71 v -449.86 c 0,-44.68 44.67,-54.26 82.96,-54.26 v -22.34 z m -788.1,551.98 v -25.52 c 54.25,0 82.96,-22.33 82.96,-54.23 v -312.68 c 0,-114.85 70.19,-172.3 216.96,-175.48 28.72,0 60.63,6.38 86.16,15.93 h 229.72 v 22.34 c -63.81,0 -111.67,15.96 -111.67,79.78 v 424.34 c 105.29,0 178.68,-31.89 178.68,-137.2 3.19,-92.53 -51.06,-134 -137.2,-137.18 v -15.96 c 124.44,-3.18 220.15,31.92 216.96,156.34 0,89.33 -47.85,149.96 -165.92,159.52 H 2524.5 v -25.52 c 51.06,0 82.96,-15.95 82.96,-54.23 v -405.21 c 0,-22.32 -70.19,-54.23 -124.44,-51.06 -92.52,9.58 -140.38,63.82 -140.38,140.39 v 315.88 c 0,47.86 44.67,54.23 79.77,54.23 l 3.19,25.52 h -242.5" /><path
         id="path20"
         style="fill:#ffffff;fill-opacity:1;fill-rule:nonzero;stroke:none"
         d="m 3951.91,3388.58 c 0,-59.67 -21.59,-104.42 -78.52,-104.42 -60.06,0 -79.69,41.61 -79.69,104.81 v 84.79 c 0,40.83 0.78,47.5 23.55,49.46 l 9.42,0.79 c 2.36,1.56 1.57,8.2 -0.78,9.37 -19.24,-0.78 -32.19,-1.13 -48.26,-1.13 -15.68,0 -29.02,0.35 -48.64,1.13 -2.36,-1.17 -3.14,-7.81 -0.79,-9.37 l 9.81,-0.79 c 22.77,-1.96 23.55,-8.63 23.55,-49.46 v -92.64 c 0,-46.72 9.8,-75.37 30.57,-92.64 19.23,-16.45 46.32,-21.54 73.41,-21.54 29.05,0 58.11,10.17 74.99,28.6 21.95,23.56 27.43,59.67 27.43,93.82 v 44.36 c 0,21.98 0,67.13 5.49,80.08 2.36,5.11 9.81,8.64 19.63,9.42 l 9.41,0.79 c 1.97,2.34 2.36,7.42 -0.78,9.37 -14.13,-0.78 -24.73,-1.13 -41.19,-1.13 -15.28,0 -29.81,0.35 -44.73,1.13 -2.35,-1.56 -3.14,-6.64 -0.78,-9.37 l 9.81,-0.79 c 9.82,-0.78 16.89,-3.53 19.63,-8.24 6.68,-11.78 7.46,-56.92 7.46,-81.26 v -45.14" /><path
         id="path22"
         style="fill:#ffffff;fill-opacity:1;fill-rule:nonzero;stroke:none"
         d="m 4294.87,3433.75 c 0,18.05 -0.79,66.71 5.88,80.84 1.57,3.14 9.42,6.28 21.98,8.24 l 5.5,0.79 c 2.35,2.34 2.35,7.81 -0.79,9.76 -13.34,-0.78 -23.55,-1.13 -40.4,-1.13 -14.89,0 -28.24,0.35 -46.3,1.13 -3.14,-1.17 -3.53,-7.42 -0.78,-9.76 l 6.67,-0.79 c 15.7,-1.96 21.99,-4.31 24.34,-7.84 7.46,-11.78 7.85,-62.8 7.85,-81.24 v -83.99 c 0,-8.24 0,-14.52 -1.57,-16.48 h -0.78 c -18.45,18.83 -37.69,40.81 -64.78,71.03 l -38.08,42.78 c -12.96,14.52 -59.28,66.33 -67.13,86.29 -5.11,-0.78 -11.77,-1.13 -18.03,-1.13 -7.04,0 -27.85,-0.04 -44.33,1.13 -3.14,-1.56 -3.14,-7.42 -0.78,-9.76 l 6.67,-0.79 c 9.42,-1.17 18.84,-3.92 24.33,-9.41 8.24,-9.03 8.64,-17.27 8.64,-28.26 v -113.42 c 0,-18.84 0.39,-66.72 -5.11,-80.85 -1.96,-4.32 -8.24,-6.67 -17.27,-7.85 l -10.59,-1.18 c -2.36,-2.37 -1.96,-7.91 0.78,-9.88 13.74,0.79 24.34,1.25 40.79,1.25 14.5,0 28.25,-0.46 45.91,-1.25 2.75,1.97 3.14,6.72 0.79,9.88 l -12.17,1.18 c -9.82,0.79 -17.67,3.14 -20.03,7.46 -6.67,11.77 -7.06,62.79 -7.06,81.24 v 85.55 c 0,11.78 0.39,20.8 1.96,25.51 h 0.79 c 8.24,-8.63 34.94,-40.81 45.54,-52.98 l 91.08,-103.61 c 34.15,-38.86 45.52,-52.6 50.21,-59.27 4.31,0 6.66,1.96 7.44,4.31 -1.17,10.21 -1.17,56.91 -1.17,68.69 v 93.81" /><path
         id="path24"
         style="fill:#ffffff;fill-opacity:1;fill-rule:nonzero;stroke:none"
         d="m 4409.85,3332.88 c 0,-41.6 -0.79,-47.09 -23.95,-49.84 l -9.81,-1.18 c -2.35,-2.37 -1.57,-8.7 0.79,-9.88 19.62,0.79 32.97,1.25 49.42,1.25 15.68,0 29.02,-0.46 48.65,-1.25 2.35,1.18 3.14,8.3 0.78,9.88 l -9.81,1.18 c -23.15,2.75 -23.94,8.24 -23.94,49.84 v 139.72 c 0,41.6 0.79,48.27 23.94,50.23 l 9.81,0.79 c 2.36,1.56 1.57,8.59 -0.78,9.76 -19.63,-0.78 -32.97,-1.13 -48.65,-1.13 -16.45,0 -29.8,0.35 -49.42,1.13 -2.36,-1.17 -3.14,-8.2 -0.79,-9.76 l 9.81,-0.79 c 23.16,-1.96 23.95,-8.63 23.95,-50.23 v -139.72" /><path
         id="path26"
         style="fill:#ffffff;fill-opacity:1;fill-rule:nonzero;stroke:none"
         d="m 4624.85,3320.31 c 6.68,-16.48 13.74,-35.71 18.06,-52.2 1.96,-0.78 3.92,-1.22 5.88,-1.22 1.57,0 3.14,0.44 4.32,1.22 6.67,20.81 25.12,66.33 40.82,102.44 l 21.19,48.28 c 17.66,40.03 32.97,71.82 43.96,90.27 5.1,8.24 10.99,12.95 20.41,13.73 l 11.77,0.79 c 1.97,1.95 1.97,8.2 -0.78,9.76 -12.95,-0.78 -25.12,-1.13 -38.07,-1.13 -14.92,0 -29.83,0.35 -40.82,1.13 -2.75,-1.56 -3.53,-7.42 -0.78,-9.76 l 7.06,-0.79 c 13.74,-1.57 17.66,-4.71 17.66,-7.45 0,-2.75 -0.39,-7.07 -3.53,-15.31 -6.67,-16.88 -25.12,-61.23 -36.5,-87.92 -9.03,-20.8 -25.51,-61.22 -37.68,-87.13 -19.62,44.75 -37.68,89.88 -55.73,135.41 -12.17,29.83 -18.84,51.02 -19.62,54.95 0.39,3.14 3.53,5.49 18.44,7.45 l 5.89,0.79 c 2.75,2.34 1.96,8.2 -0.79,9.76 -16.48,-0.78 -30.22,-1.13 -47.49,-1.13 -16.87,0 -29.43,0.35 -40.81,1.13 -3.09,-1.95 -3.49,-7.42 -0.77,-9.76 l 7.05,-0.79 c 16.87,-1.96 22.76,-10.2 31.79,-32.18 l 69.07,-170.34" /><path
         id="path28"
         style="fill:#ffffff;fill-opacity:1;fill-rule:nonzero;stroke:none"
         d="m 4856.21,3332.06 c 0,-41.17 -1.97,-47.06 -24.34,-49.02 l -12.95,-1.18 c -2.36,-2.36 -1.57,-8.64 0.78,-9.82 23.16,0.78 36.51,1.18 53.36,1.18 h 35.3 c 34.93,0 69.86,-0.4 105.18,-1.18 5.1,10.56 14.91,40.78 17.66,54.52 -1.57,3.54 -7.06,4.71 -9.81,2.75 -10.21,-20.42 -20.8,-34.16 -27.87,-38.09 -8.63,-4.31 -20.01,-5.88 -50.23,-5.88 -34.54,0 -42.78,4.31 -47.49,9.03 -6.28,6.67 -7.46,20.02 -7.46,40.83 v 55.36 c 0,10.21 1.18,10.61 12.95,10.61 h 22.76 c 15.31,0 24.73,-0.4 30.23,-1.97 7.85,-1.96 10.59,-7.85 12.16,-14.92 l 3.53,-15.31 c 1.97,-2.36 8.64,-2.36 10.21,0.39 0,8.64 -1.52,23.56 -1.52,37.67 0,14.89 1.52,30.2 1.52,39.63 -1.57,2.75 -8.24,2.75 -10.21,0.39 l -3.13,-16.1 c -1.97,-9.81 -4.71,-12.17 -9.42,-13.74 -4.71,-1.57 -16.88,-2.36 -33.37,-2.36 h -22.76 c -11.77,0 -12.95,0 -12.95,11 v 78.53 c 0,14.92 0,15.71 11.77,15.71 h 28.26 c 17.27,0 29.83,-0.4 38.07,-2.36 20.41,-5.1 23.94,-18.85 29.83,-37.3 1.96,-2.36 8.24,-1.57 9.81,0.78 -1.57,17.24 -3.92,45.5 -6.28,52.17 -4.71,-1.18 -27.86,-1.18 -52.98,-1.18 h -73.76 c -16.07,0 -29.41,0.4 -46.29,1.18 -2.36,-1.18 -3.14,-8.24 -0.79,-9.81 l 6.28,-0.79 c 23.16,-2.74 23.95,-8.63 23.95,-49.45 v -141.27" /><path
         id="path30"
         style="fill:#ffffff;fill-opacity:1;fill-rule:nonzero;stroke:none"
         d="m 5316.23,3276.31 c -10.59,0.78 -20.4,5.1 -27.08,10.99 -26.68,22.38 -47.46,53.8 -78.84,104.44 -1.97,3.13 -3.93,7.04 -1.97,9.38 19.63,7.85 49.03,28.27 49.03,65.57 0,27.48 -13.72,45.15 -32.54,54.97 -18.05,9.77 -41.22,11.72 -65.57,11.72 -38.46,0 -65.51,-1.17 -87.49,-3.13 -3.14,-1.56 -3.14,-7.81 -0.39,-9.77 l 12.56,-1.57 c 16.09,-1.96 17.27,-8.64 17.27,-45.94 V 3332.1 c 0,-41.21 -0.79,-46.31 -23.55,-49.06 l -9.81,-1.18 c -2.36,-2.76 -1.57,-8.69 0.78,-9.88 18.45,0.79 32.58,1.25 49.03,1.25 15.68,0 29.03,-0.46 46.7,-1.25 2.36,1.19 3.14,7.9 0.79,9.88 l -8.25,1.18 c -22.77,3.14 -23.56,7.85 -23.56,49.06 v 49.45 c 0,8.24 0.79,8.63 18.46,8.63 15.7,0 21.99,-3.93 27.88,-12.56 12.17,-17.66 28.27,-44.74 38.48,-59.26 27.84,-39.69 47.84,-49.46 81.2,-49.46 7.46,0 13.73,0.78 17.27,1.95 1.96,1.56 1.57,4.68 -0.4,5.46 z m -114.17,135.8 c -11.39,-8.64 -26.31,-10.21 -40.45,-10.21 -20.02,0 -25.91,0.79 -27.09,1.97 -1.18,1.57 -1.18,5.89 -1.18,12.95 v 91.88 c 0,11 1.18,12.56 25.53,12.56 43.58,0 62.83,-29.44 62.83,-60.46 0,-26.7 -9.03,-40.44 -19.64,-48.69" /><path
         id="path32"
         style="fill:#ffffff;fill-opacity:1;fill-rule:nonzero;stroke:none"
         d="m 5492.94,3339.51 c 0,37.29 -24.29,60.06 -49.02,75.37 l -31.42,19.63 c -14.53,9.03 -33.38,25.51 -33.38,48.28 0,18.06 8.25,43.58 46.74,43.58 37.7,0 48.28,-25.52 53.37,-44.36 1.96,-2.35 8.23,-1.17 9.8,1.18 0,16.47 -3.53,38.43 -7.06,47.84 -3.13,0 -8.62,0.78 -13.71,2.35 -10.2,2.76 -24.34,5.1 -36.51,5.1 -51.05,0 -80.05,-30.17 -80.05,-67.46 0,-32.19 22.72,-54.57 42.35,-67.52 l 37.3,-24.34 c 28.67,-18.45 32.21,-37.69 32.21,-54.96 0,-23.55 -16.1,-45.14 -49.09,-45.14 -45.53,0 -61.59,38.47 -67.48,58.49 -1.57,2.35 -7.46,1.57 -9.42,-1.18 0.79,-18.45 5.89,-46.32 10.6,-54.96 7.45,-4.31 28.21,-14.47 61.19,-14.47 51.06,0 83.58,29.39 83.58,72.57" /><path
         id="path34"
         style="fill:#ffffff;fill-opacity:1;fill-rule:nonzero;stroke:none"
         d="m 5580.85,3332.88 c 0,-41.6 -0.79,-47.09 -23.94,-49.84 l -9.81,-1.18 c -2.36,-2.37 -1.57,-8.7 0.78,-9.88 19.62,0.79 32.97,1.25 49.43,1.25 15.67,0 29.02,-0.46 48.64,-1.25 2.36,1.18 3.14,8.3 0.79,9.88 l -9.82,1.18 c -23.15,2.75 -23.94,8.24 -23.94,49.84 v 139.72 c 0,41.6 0.79,48.27 23.94,50.23 l 9.82,0.79 c 2.35,1.56 1.57,8.59 -0.79,9.76 -19.62,-0.78 -32.97,-1.13 -48.64,-1.13 -16.46,0 -29.81,0.35 -49.43,1.13 -2.35,-1.17 -3.14,-8.2 -0.78,-9.76 l 9.81,-0.79 c 23.15,-1.96 23.94,-8.63 23.94,-50.23 v -139.72" /><path
         id="path36"
         style="fill:#ffffff;fill-opacity:1;fill-rule:nonzero;stroke:none"
         d="m 5974.28,3405.85 c 0,51.82 -26.66,96.57 -79.64,115.81 -25.52,9.38 -53.39,11.72 -86.37,11.72 -33.37,0 -65.13,-1.17 -98.47,-3.13 -3.93,-1.56 -3.54,-7.81 -0.4,-9.77 l 8.64,-1.18 c 16.48,-2.35 18.44,-10.6 18.44,-38.08 v -149.17 c 0,-41.16 -0.78,-45.87 -23.54,-49.01 l -9.03,-1.18 c -2.36,-2.36 -1.57,-8.64 0.78,-9.82 18.45,0.72 32.58,1.12 49.04,1.12 13.71,0.04 38.84,-3.08 63.96,-3.08 30.23,0 62.42,5.08 87.94,18.79 44.74,24.34 68.65,67.13 68.65,116.98 z m -39.2,-0.78 c 0,-73.02 -34.16,-122.87 -110.32,-122.87 -24.73,0 -39.65,3.92 -48.29,16.09 -6.67,9.42 -7.85,21.98 -7.85,42.79 v 144.85 c 0,17.67 0.78,27.48 3.92,29.84 3.15,2.35 15.71,5.49 38.87,5.49 102.86,0 123.67,-73.01 123.67,-116.19" /><path
         id="path38"
         style="fill:#ffffff;fill-opacity:1;fill-rule:nonzero;stroke:none"
         d="m 6237.02,3281.86 -10.59,1.18 c -16.88,1.97 -21.98,7.85 -33.36,41.6 l -53.76,157.72 c -5.88,17.27 -12.16,35.32 -17.27,52.59 -0.78,2.75 -3.52,3.53 -5.88,3.53 -4.32,-5.1 -10.99,-12.16 -20.41,-14.91 1.18,-6.28 -1.17,-13.74 -6.67,-27.87 l -40.02,-105.96 c -16.48,-43.91 -27.47,-69.42 -34.53,-87.47 -5.5,-14.12 -14.13,-18.44 -23.55,-19.23 l -12.95,-1.18 c -2.35,-1.98 -1.57,-8.3 0.79,-9.88 10.59,0.39 24.72,1.25 37.67,1.25 18.44,-0.39 30.6,-0.46 40.81,-1.25 3.53,1.58 3.53,7.9 0.78,9.88 l -12.95,1.18 c -9.41,0.79 -11.38,3.14 -11.38,7.85 0,4.32 2.75,14.91 8.64,32.57 l 13.73,41.21 c 2.75,8.24 5.1,9.42 14.91,9.42 h 59.26 c 11.77,0 13.34,-1.18 16.09,-9.82 l 17.26,-53.37 c 3.14,-9.41 5.1,-16.48 5.1,-20.79 0,-3.93 -5.49,-6.28 -13.73,-7.07 l -11.38,-1.18 c -2.75,-1.98 -2.36,-8.3 0.78,-9.88 11.38,0.39 26.29,1.25 45.13,1.25 17.66,0 31.39,-0.46 47.48,-1.25 1.96,1.58 2.75,7.9 0,9.88 z m -111.84,107.88 h -48.26 c -10.99,0 -11.38,0.39 -8.24,9.42 l 24.72,68.29 c 4.32,11.77 8.24,21.19 9.42,23.15 h 0.78 c 2.36,-4.71 5.89,-15.3 9.03,-24.72 l 21.19,-63.98 c 3.53,-10.59 2.75,-12.16 -8.64,-12.16" /><path
         id="path40"
         style="fill:#ffffff;fill-opacity:1;fill-rule:nonzero;stroke:none"
         d="m 6542.89,3405.85 c 0,51.82 -26.66,96.57 -79.64,115.81 -25.52,9.38 -53.39,11.72 -86.37,11.72 -33.37,0 -65.12,-1.17 -98.47,-3.13 -3.93,-1.56 -3.54,-7.81 -0.4,-9.77 l 8.64,-1.18 c 16.48,-2.35 18.45,-10.6 18.45,-38.08 v -149.17 c 0,-41.16 -0.79,-45.87 -23.55,-49.01 l -9.03,-1.18 c -2.35,-2.36 -1.57,-8.64 0.79,-9.82 18.44,0.72 32.57,1.12 49.03,1.12 13.72,0.04 38.84,-3.08 63.96,-3.08 30.23,0 62.43,5.08 87.94,18.79 44.74,24.34 68.65,67.13 68.65,116.98 z m -39.2,-0.78 c 0,-73.02 -34.16,-122.87 -110.32,-122.87 -24.73,0 -39.65,3.92 -48.29,16.09 -6.67,9.42 -7.85,21.98 -7.85,42.79 v 144.85 c 0,17.67 0.78,27.48 3.93,29.84 3.14,2.35 15.7,5.49 38.86,5.49 102.86,0 123.67,-73.01 123.67,-116.19" /><path
         id="path42"
         style="fill:#ffffff;fill-opacity:1;fill-rule:nonzero;stroke:none"
         d="m 6615.6,3332.06 c 0,-41.17 -1.96,-47.06 -24.33,-49.02 l -12.95,-1.18 c -2.36,-2.36 -1.57,-8.64 0.78,-9.82 23.16,0.78 36.5,1.18 53.36,1.18 h 35.3 c 34.93,0 69.86,-0.4 105.18,-1.18 5.1,10.56 14.91,40.78 17.66,54.52 -1.57,3.54 -7.06,4.71 -9.81,2.75 -10.2,-20.42 -20.8,-34.16 -27.87,-38.09 -8.63,-4.31 -20.01,-5.88 -50.23,-5.88 -34.54,0 -42.78,4.31 -47.49,9.03 -6.28,6.67 -7.46,20.02 -7.46,40.83 v 55.36 c 0,10.21 1.18,10.61 12.95,10.61 h 22.76 c 15.31,0 24.73,-0.4 30.23,-1.97 7.85,-1.96 10.59,-7.85 12.16,-14.92 l 3.54,-15.31 c 1.96,-2.36 8.63,-2.36 10.2,0.39 0,8.64 -1.52,23.56 -1.52,37.67 0,14.89 1.52,30.2 1.52,39.63 -1.57,2.75 -8.24,2.75 -10.2,0.39 l -3.15,-16.1 c -1.96,-9.81 -4.7,-12.17 -9.41,-13.74 -4.71,-1.57 -16.88,-2.36 -33.37,-2.36 h -22.76 c -11.77,0 -12.95,0 -12.95,11 v 78.53 c 0,14.92 0,15.71 11.77,15.71 h 28.26 c 17.27,0 29.83,-0.4 38.07,-2.36 20.41,-5.1 23.94,-18.85 29.83,-37.3 1.96,-2.36 8.24,-1.57 9.81,0.78 -1.57,17.24 -3.92,45.5 -6.28,52.17 -4.71,-1.18 -27.86,-1.18 -52.98,-1.18 h -73.76 c -16.07,0 -29.41,0.4 -46.29,1.18 -2.36,-1.18 -3.14,-8.24 -0.79,-9.81 l 6.28,-0.79 c 23.16,-2.74 23.94,-8.63 23.94,-49.45 v -141.27" /><path
         id="path44"
         style="fill:#ffffff;fill-opacity:1;fill-rule:nonzero;stroke:none"
         d="m 3793.12,3089.06 c 0,12.57 0.39,14.14 21.21,14.14 40.84,0 63.22,-24.74 63.22,-62.82 0,-34.16 -15.31,-58.11 -57.72,-65.96 -2.36,-0.78 -2.36,-6.63 0.39,-7.8 16.1,0 36.91,3.51 54.19,11.72 16.86,8.25 39.2,26.31 39.2,62.43 0,27.09 -13.32,47.51 -31.35,58.9 -18.45,11.35 -42.8,15.65 -75.39,15.65 -32.56,0 -56.87,-0.39 -77.67,-3.13 -3.14,-1.56 -3.54,-7.43 -0.79,-9.78 l 14.13,-1.57 c 17.66,-1.96 18.45,-8.63 18.45,-42.01 v -144.8 c 0,-41.2 -0.79,-45.91 -23.55,-49.05 l -8.24,-1.19 c -2.36,-2.37 -1.57,-8.69 0.78,-9.88 17.27,0.79 31.4,1.25 47.86,1.25 15.67,0 28.63,-0.46 51.02,-1.25 2.35,1.19 3.14,7.91 0.78,9.88 l -10.6,1.19 c -25.13,2.74 -25.92,7.85 -25.92,49.05 v 175.03" /><path
         id="path46"
         style="fill:#ffffff;fill-opacity:1;fill-rule:nonzero;stroke:none"
         d="m 4220.98,2985.83 c 0,69.09 -45.48,134.59 -136.16,134.59 -80.88,0 -139.7,-60.01 -139.7,-138.52 0,-70.66 52.54,-133.02 139.7,-133.02 75.76,0 136.16,57.65 136.16,136.95 z m -39.2,-12.17 c 0,-77.34 -44.75,-112.67 -91.86,-112.67 -77.34,0 -105.6,75.37 -105.6,133.47 0,85.97 52.99,113.84 93.82,113.84 74.98,0 103.64,-69.87 103.64,-134.64" /><path
         id="path48"
         style="fill:#ffffff;fill-opacity:1;fill-rule:nonzero;stroke:none"
         d="m 4507.18,2858.24 c -10.6,0.79 -20.41,5.11 -27.08,11 -26.69,22.38 -47.47,53.79 -78.85,104.44 -1.96,3.12 -3.93,7.03 -1.96,9.37 19.62,7.86 49.01,28.27 49.01,65.57 0,27.49 -13.71,45.16 -32.53,54.97 -18.06,9.77 -41.22,11.73 -65.57,11.73 -38.46,0 -65.51,-1.17 -87.49,-3.13 -3.14,-1.56 -3.14,-7.82 -0.39,-9.77 l 12.56,-1.58 c 16.09,-1.96 17.27,-8.63 17.27,-45.93 v -140.88 c 0,-41.2 -0.79,-46.31 -23.55,-49.05 l -9.81,-1.18 c -2.36,-2.77 -1.57,-8.7 0.78,-9.89 18.45,0.8 32.58,1.26 49.04,1.26 15.67,0 29.02,-0.46 46.69,-1.26 2.36,1.19 3.15,7.91 0.79,9.89 l -8.25,1.18 c -22.77,3.14 -23.56,7.85 -23.56,49.05 v 49.45 c 0,8.24 0.79,8.63 18.46,8.63 15.71,0 21.99,-3.92 27.88,-12.56 12.17,-17.65 28.27,-44.73 38.48,-59.25 27.84,-39.7 47.84,-49.46 81.2,-49.46 7.46,0 13.74,0.78 17.27,1.95 1.96,1.56 1.57,4.67 -0.39,5.45 z M 4393,2994.05 c -11.38,-8.64 -26.31,-10.21 -40.44,-10.21 -20.03,0 -25.92,0.78 -27.1,1.96 -1.18,1.57 -1.18,5.89 -1.18,12.96 v 91.88 c 0,10.99 1.18,12.56 25.53,12.56 43.59,0 62.83,-29.45 62.83,-60.47 0,-26.7 -9.04,-40.44 -19.64,-48.68" /><path
         id="path50"
         style="fill:#ffffff;fill-opacity:1;fill-rule:nonzero;stroke:none"
         d="m 4632.94,3088.68 c 0,12.95 -0.39,13.34 11.39,13.34 h 27.88 c 21.6,0 36.52,-3.14 45.55,-9.81 5.89,-4.32 8.64,-18.84 9.82,-28.65 1.95,-2.35 8.59,-2.35 10.16,0.79 -1.18,11.77 1.57,43.53 5.88,59.6 -0.78,1.57 -5.1,1.96 -7.06,1.18 -5.85,-10.21 -9.37,-10.99 -30.58,-10.99 h -158.94 c -18.05,0 -31.01,-0.39 -33.36,12.17 -1.18,1.17 -6.28,0.78 -7.46,0 -2.74,-15.69 -8.63,-40.77 -14.91,-58.43 1.57,-3.14 7.06,-5.1 10.2,-2.75 4.32,9.81 8.24,18.45 17.66,27.08 9.82,9.03 31.4,9.81 48.28,9.81 h 21.59 c 11.77,0 11.77,-0.39 11.77,-12.56 v -175.43 c 0,-41.2 -1.96,-47.09 -24.33,-49.05 l -14.13,-1.19 c -3.14,-1.97 -2.36,-8.69 0,-9.88 25.12,0.79 38.85,1.25 54.53,1.25 15.67,0 29.02,-0.46 51.41,-1.25 2.35,1.19 3.14,8.3 0.78,9.88 l -12.56,1.19 c -22.78,1.96 -23.57,7.85 -23.57,49.05 v 174.65" /><path
         id="path52"
         style="fill:#ffffff;fill-opacity:1;fill-rule:nonzero;stroke:none"
         d="m 4987.81,2970.51 c 0,-59.67 -21.59,-104.42 -78.52,-104.42 -60.07,0 -79.7,41.61 -79.7,104.82 v 84.79 c 0,40.82 0.79,47.5 23.56,49.46 l 9.42,0.78 c 2.35,1.57 1.57,8.21 -0.79,9.38 -19.23,-0.78 -32.19,-1.13 -48.26,-1.13 -15.67,0 -29.02,0.35 -48.64,1.13 -2.35,-1.17 -3.14,-7.81 -0.78,-9.38 l 9.81,-0.78 c 22.76,-1.96 23.55,-8.64 23.55,-49.46 v -92.65 c 0,-46.71 9.79,-75.37 30.56,-92.64 19.24,-16.45 46.33,-21.54 73.42,-21.54 29.05,0 58.1,10.18 74.98,28.61 21.95,23.55 27.43,59.67 27.43,93.82 v 44.36 c 0,21.98 0,67.12 5.5,80.08 2.35,5.1 9.81,8.63 19.62,9.42 l 9.42,0.78 c 1.96,2.35 2.35,7.42 -0.79,9.38 -14.12,-0.78 -24.72,-1.13 -41.18,-1.13 -15.29,0 -29.81,0.35 -44.73,1.13 -2.36,-1.57 -3.14,-6.64 -0.79,-9.38 l 9.82,-0.78 c 9.81,-0.79 16.88,-3.53 19.63,-8.24 6.67,-11.78 7.46,-56.92 7.46,-81.26 v -45.15" /><path
         id="path54"
         style="fill:#ffffff;fill-opacity:1;fill-rule:nonzero;stroke:none"
         d="m 5051.56,2983.08 c 0,-50.64 24.3,-86.37 55.68,-107.96 28.66,-19.21 62.41,-26.25 97.73,-26.25 25.12,0 53.38,5.87 62.01,8.99 4.32,1.57 9.03,3.13 13.74,3.92 5.89,7.45 16.09,33.36 18.84,53.78 -1.57,2.74 -7.46,3.53 -10.21,1.57 -9.02,-23.16 -31.39,-56.14 -82.02,-56.14 -64.37,0 -116.57,45.54 -116.57,127.97 0,81.26 51.02,119.34 111.07,119.34 56.91,0 74.57,-30.62 80.46,-57.31 2.75,-2.35 8.63,-1.95 10.6,0.79 -3.14,23.92 -5.1,48.63 -5.5,57.65 -3.53,-0.39 -6.28,0.39 -10.99,1.57 -18.44,5.12 -48.27,9.42 -69.47,9.42 -40.81,0 -77.31,-10.95 -105.97,-33.32 -29.8,-23.16 -49.4,-60.45 -49.4,-104.02" /><path
         id="path56"
         style="fill:#ffffff;fill-opacity:1;fill-rule:nonzero;stroke:none"
         d="m 5569.54,2863.8 -10.59,1.18 c -16.87,1.96 -21.98,7.85 -33.36,41.6 l -53.76,157.72 c -5.88,17.26 -12.16,35.32 -17.26,52.59 -0.79,2.75 -3.53,3.53 -5.89,3.53 -4.31,-5.1 -10.99,-12.17 -20.4,-14.91 1.17,-6.28 -1.18,-13.74 -6.68,-27.87 l -40.02,-105.97 c -16.48,-43.9 -27.47,-69.41 -34.53,-87.46 -5.49,-14.13 -14.13,-18.45 -23.54,-19.23 l -12.95,-1.18 c -2.36,-1.98 -1.58,-8.3 0.78,-9.89 10.59,0.4 24.72,1.26 37.67,1.26 18.44,-0.4 30.61,-0.46 40.81,-1.26 3.53,1.59 3.53,7.91 0.78,9.89 l -12.95,1.18 c -9.41,0.78 -11.37,3.14 -11.37,7.85 0,4.31 2.74,14.91 8.63,32.57 l 13.73,41.2 c 2.75,8.24 5.1,9.42 14.91,9.42 h 59.26 c 11.77,0 13.34,-1.18 16.09,-9.81 l 17.26,-53.37 c 3.14,-9.42 5.11,-16.48 5.11,-20.8 0,-3.92 -5.5,-6.28 -13.74,-7.06 l -11.38,-1.18 c -2.75,-1.98 -2.35,-8.3 0.79,-9.89 11.38,0.4 26.29,1.26 45.12,1.26 17.66,0 31.39,-0.46 47.48,-1.26 1.96,1.59 2.75,7.91 0,9.89 z m -111.83,107.87 h -48.27 c -10.99,0 -11.38,0.39 -8.24,9.42 l 24.72,68.29 c 4.32,11.78 8.24,21.2 9.42,23.16 h 0.79 c 2.35,-4.71 5.88,-15.31 9.02,-24.73 l 21.19,-63.97 c 3.53,-10.6 2.75,-12.17 -8.63,-12.17" /><path
         id="path58"
         style="fill:#ffffff;fill-opacity:1;fill-rule:nonzero;stroke:none"
         d="m 5636.54,2913.98 c 0,-41.15 -0.78,-46.65 -23.55,-49 l -11.77,-1.19 c -2.35,-2.36 -1.57,-8.64 0.79,-9.82 21.97,0.79 34.53,1.18 50.99,1.18 h 36.09 c 40.42,0 77.71,-0.39 97.72,-1.18 5.5,10.56 16.49,50.59 16.49,54.91 0,2.75 -7.46,4.32 -9.81,2.36 -7.85,-20.02 -18.06,-34.16 -25.91,-38.87 -6.28,-3.53 -14.52,-5.1 -47.88,-5.1 -31.01,0 -38.46,4.71 -42.78,9.03 -7.07,7.46 -8.24,17.66 -8.24,42.4 v 136.61 c 0,41.22 0.78,47.5 23.94,49.46 l 9.42,0.78 c 2.35,1.56 1.57,8.59 -0.79,9.77 -19.62,-0.78 -32.96,-1.13 -48.25,-1.13 -15.67,0 -29.02,0.35 -50.99,1.13 -2.36,-1.18 -3.14,-8.21 -0.79,-9.77 l 9.81,-0.78 c 24.73,-1.96 25.51,-8.24 25.51,-49.46 v -141.33" /><path
         id="path60"
         style="fill:#ffffff;fill-opacity:1;fill-rule:nonzero;stroke:none"
         d="m 5867.51,2914 c 0,-41.17 -1.96,-47.06 -24.33,-49.02 l -12.95,-1.19 c -2.36,-2.36 -1.57,-8.64 0.78,-9.82 23.16,0.79 36.5,1.18 53.35,1.18 h 35.3 c 34.94,0 69.87,-0.39 105.19,-1.18 5.1,10.56 14.91,40.79 17.66,54.53 -1.57,3.53 -7.06,4.71 -9.81,2.75 -10.21,-20.42 -20.8,-34.16 -27.87,-38.09 -8.63,-4.32 -20.01,-5.89 -50.23,-5.89 -34.54,0 -42.78,4.32 -47.49,9.03 -6.28,6.68 -7.46,20.03 -7.46,40.84 v 55.36 c 0,10.21 1.18,10.6 12.95,10.6 h 22.76 c 15.31,0 24.73,-0.39 30.22,-1.96 7.85,-1.97 10.6,-7.86 12.17,-14.92 l 3.53,-15.32 c 1.97,-2.35 8.64,-2.35 10.21,0.4 0,8.63 -1.52,23.56 -1.52,37.67 0,14.89 1.52,30.2 1.52,39.62 -1.57,2.75 -8.24,2.75 -10.21,0.4 l -3.14,-16.1 c -1.96,-9.82 -4.71,-12.18 -9.42,-13.75 -4.71,-1.57 -16.87,-2.35 -33.36,-2.35 h -22.76 c -11.77,0 -12.95,0 -12.95,10.99 v 78.54 c 0,14.92 0,15.7 11.77,15.7 h 28.26 c 17.27,0 29.83,-0.39 38.07,-2.35 20.41,-5.11 23.94,-18.85 29.83,-37.31 1.96,-2.35 8.24,-1.57 9.81,0.79 -1.57,17.24 -3.92,45.49 -6.28,52.17 -4.71,-1.18 -27.86,-1.18 -52.98,-1.18 h -73.77 c -16.06,0 -29.41,0.39 -46.28,1.18 -2.36,-1.18 -3.14,-8.25 -0.79,-9.82 l 6.28,-0.78 c 23.16,-2.75 23.94,-8.63 23.94,-49.45 V 2914" /><path
         id="path62"
         style="fill:#ffffff;fill-opacity:1;fill-rule:nonzero;stroke:none"
         d="m 6317.64,3015.68 c 0,18.05 -0.78,66.72 5.89,80.85 1.57,3.14 9.41,6.28 21.97,8.24 l 5.5,0.78 c 2.35,2.35 2.35,7.81 -0.79,9.77 -13.34,-0.78 -23.54,-1.13 -40.4,-1.13 -14.89,0 -28.24,0.35 -46.29,1.13 -3.15,-1.18 -3.54,-7.42 -0.79,-9.77 l 6.67,-0.78 c 15.71,-1.96 21.99,-4.32 24.34,-7.85 7.46,-11.77 7.86,-62.79 7.86,-81.24 v -83.99 c 0,-8.24 0,-14.52 -1.57,-16.48 h -0.79 c -18.45,18.84 -37.69,40.82 -64.78,71.04 l -38.08,42.77 c -12.95,14.53 -59.28,66.33 -67.13,86.3 -5.1,-0.78 -11.76,-1.13 -18.02,-1.13 -7.05,0 -27.85,-0.05 -44.34,1.13 -3.14,-1.57 -3.14,-7.42 -0.78,-9.77 l 6.67,-0.78 c 9.42,-1.18 18.84,-3.92 24.33,-9.42 8.25,-9.03 8.64,-17.27 8.64,-28.26 v -113.42 c 0,-18.84 0.39,-66.72 -5.1,-80.84 -1.97,-4.32 -8.25,-6.68 -17.27,-7.85 l -10.6,-1.19 c -2.35,-2.37 -1.96,-7.9 0.79,-9.88 13.73,0.79 24.33,1.25 40.79,1.25 14.5,0 28.24,-0.46 45.9,-1.25 2.75,1.98 3.15,6.72 0.79,9.88 l -12.17,1.19 c -9.82,0.78 -17.67,3.14 -20.02,7.45 -6.68,11.78 -7.07,62.8 -7.07,81.24 v 85.56 c 0,11.77 0.39,20.8 1.96,25.51 h 0.79 c 8.24,-8.63 34.94,-40.82 45.54,-52.98 l 91.08,-103.61 c 34.15,-38.87 45.52,-52.61 50.22,-59.28 4.3,0 6.65,1.96 7.44,4.32 -1.18,10.2 -1.18,56.91 -1.18,68.68 v 93.81" /><path
         id="path64"
         style="fill:#ffffff;fill-opacity:1;fill-rule:nonzero;stroke:none"
         d="m 6539.62,2921.44 c 0,37.3 -24.29,60.07 -49.02,75.37 l -31.42,19.63 c -14.53,9.03 -33.38,25.52 -33.38,48.29 0,18.06 8.25,43.57 46.73,43.57 37.7,0 48.28,-25.51 53.38,-44.36 1.96,-2.34 8.22,-1.17 9.79,1.19 0,16.46 -3.52,38.42 -7.05,47.83 -3.14,0 -8.62,0.79 -13.71,2.36 -10.2,2.75 -24.34,5.1 -36.52,5.1 -51.05,0 -80.04,-30.18 -80.04,-67.47 0,-32.19 22.72,-54.56 42.34,-67.52 l 37.31,-24.34 c 28.67,-18.45 32.2,-37.68 32.2,-54.96 0,-23.55 -16.1,-45.14 -49.08,-45.14 -45.53,0 -61.6,38.47 -67.48,58.49 -1.57,2.36 -7.46,1.57 -9.42,-1.18 0.78,-18.45 5.88,-46.32 10.59,-54.95 7.45,-4.31 28.22,-14.48 61.2,-14.48 51.05,0 83.58,29.39 83.58,72.57" /><path
         id="path66"
         style="fill:#ffffff;fill-opacity:1;fill-rule:nonzero;stroke:none"
         d="m 6615.81,2914 c 0,-41.17 -1.96,-47.06 -24.33,-49.02 l -12.96,-1.19 c -2.35,-2.36 -1.57,-8.64 0.79,-9.82 23.16,0.79 36.5,1.18 53.35,1.18 h 35.3 c 34.93,0 69.86,-0.39 105.19,-1.18 5.1,10.56 14.91,40.79 17.66,54.53 -1.57,3.53 -7.07,4.71 -9.82,2.75 -10.2,-20.42 -20.8,-34.16 -27.86,-38.09 -8.64,-4.32 -20.02,-5.89 -50.24,-5.89 -34.54,0 -42.78,4.32 -47.49,9.03 -6.28,6.68 -7.46,20.03 -7.46,40.84 v 55.36 c 0,10.21 1.18,10.6 12.96,10.6 h 22.76 c 15.31,0 24.73,-0.39 30.22,-1.96 7.85,-1.97 10.6,-7.86 12.17,-14.92 l 3.53,-15.32 c 1.96,-2.35 8.63,-2.35 10.2,0.4 0,8.63 -1.52,23.56 -1.52,37.67 0,14.89 1.52,30.2 1.52,39.62 -1.57,2.75 -8.24,2.75 -10.2,0.4 l -3.14,-16.1 c -1.96,-9.82 -4.71,-12.18 -9.42,-13.75 -4.71,-1.57 -16.88,-2.35 -33.36,-2.35 h -22.76 c -11.78,0 -12.96,0 -12.96,10.99 v 78.54 c 0,14.92 0,15.7 11.78,15.7 h 28.26 c 17.27,0 29.83,-0.39 38.07,-2.35 20.41,-5.11 23.94,-18.85 29.83,-37.31 1.96,-2.35 8.24,-1.57 9.81,0.79 -1.57,17.24 -3.93,45.49 -6.28,52.17 -4.71,-1.18 -27.87,-1.18 -52.99,-1.18 h -73.76 c -16.07,0 -29.41,0.39 -46.29,1.18 -2.35,-1.18 -3.14,-8.25 -0.78,-9.82 l 6.28,-0.78 c 23.16,-2.75 23.94,-8.63 23.94,-49.45 V 2914" /><path
         id="path68"
         style="fill:#ffffff;fill-opacity:1;fill-rule:nonzero;stroke:none"
         d="m 3871.4,2131.47 c 0,31.66 -4.57,77.61 -67.26,77.61 -65.75,0 -73.96,-46.87 -73.96,-112.91 0,-66.05 8.21,-112.92 73.96,-112.92 57.52,0 69.09,40.48 69.09,87.35 h -43.83 c 0,-46.87 -11.57,-55.09 -27.39,-55.09 -18.87,0 -28.01,11.87 -28.01,77.61 0,61.48 5.18,83.7 27.4,83.7 19.78,0 26.17,-13.69 26.17,-45.35 z m 87.95,-143.96 v 217.31 h -43.82 v -217.31 z m 47.79,217.31 v -217.31 h 124.48 v 35.92 h -80.66 v 58.43 h 73.05 v 35.92 h -73.05 v 51.13 h 77.62 v 35.91 z m 16.13,12.79 h 30.43 l 14.61,25.87 14,-25.87 h 32.26 l -23.74,43.82 h -43.82 z m 145.48,-12.79 v -217.31 h 40.17 v 152.18 h 0.61 l 53.57,-152.18 h 49.91 v 217.31 h -40.17 v -148.83 h -0.61 l -52.96,148.83 z m 326.57,-73.35 c 0,31.66 -4.57,77.61 -67.26,77.61 -65.75,0 -73.96,-46.87 -73.96,-112.91 0,-66.05 8.21,-112.92 73.96,-112.92 57.52,0 69.08,40.48 69.08,87.35 h -43.82 c 0,-46.87 -11.57,-55.09 -27.4,-55.09 -18.87,0 -28,11.87 -28,77.61 0,61.48 5.18,83.7 27.4,83.7 19.78,0 26.17,-13.69 26.17,-45.35 z m 87.95,-143.96 v 217.31 h -43.82 v -217.31 z m 32.57,0 h 45.65 l 10.05,45.96 h 57.82 l 10.05,-45.96 h 45.65 l -57.52,217.31 h -54.18 z m 84.31,179.57 h 0.6 l 21,-97.7 h -42.61 z m 203.61,37.74 v -217.31 h 124.48 v 35.92 h -80.66 v 58.43 h 73.05 v 35.92 h -73.05 v 51.13 h 77.62 v 35.91 z m 238.3,0 v -35.91 h 47.48 v -181.4 h 43.83 v 181.4 h 47.48 v 35.91 z m 172.87,0 v -217.31 h 124.49 v 35.92 h -80.66 v 58.43 h 73.05 v 35.92 h -73.05 v 51.13 h 77.61 v 35.91 z m 298.27,-73.35 c 0,31.66 -4.56,77.61 -67.26,77.61 -65.74,0 -73.96,-46.87 -73.96,-112.91 0,-66.05 8.22,-112.92 73.96,-112.92 57.52,0 69.09,40.48 69.09,87.35 h -43.83 c 0,-46.87 -11.57,-55.09 -27.39,-55.09 -18.87,0 -28,11.87 -28,77.61 0,61.48 5.17,83.7 27.39,83.7 19.78,0 26.17,-13.69 26.17,-45.35 z m 42,73.35 v -217.31 h 40.17 v 152.18 h 0.61 l 53.57,-152.18 h 49.91 v 217.31 h -40.17 v -148.83 h -0.61 l -52.96,148.83 z m 185.35,-108.65 c 0,-66.05 8.22,-112.92 73.96,-112.92 65.74,0 73.96,46.87 73.96,112.92 0,66.04 -8.22,112.91 -73.96,112.91 -65.74,0 -73.96,-46.87 -73.96,-112.91 z m 43.83,0 c 0,58.13 4.26,80.65 30.13,80.65 25.87,0 30.13,-22.52 30.13,-80.65 0,-58.44 -4.26,-80.66 -30.13,-80.66 -25.87,0 -30.13,22.22 -30.13,80.66 z m 266.61,-108.66 v 35.92 h -77.61 v 181.39 h -43.83 v -217.31 z m 30.13,108.66 c 0,-66.05 8.22,-112.92 73.96,-112.92 65.74,0 73.96,46.87 73.96,112.92 0,66.04 -8.22,112.91 -73.96,112.91 -65.74,0 -73.96,-46.87 -73.96,-112.91 z m 43.83,0 c 0,58.13 4.26,80.65 30.13,80.65 25.87,0 30.13,-22.52 30.13,-80.65 0,-58.44 -4.26,-80.66 -30.13,-80.66 -25.87,0 -30.13,22.22 -30.13,80.66 z m 283.66,44.13 c 0,44.13 -19.48,68.78 -67.57,68.78 -56,0 -73.04,-37.43 -73.04,-110.48 0,-75.17 10.65,-115.35 64.52,-115.35 20.39,0 35.31,7.31 45.66,24.35 h 0.6 v -20.09 h 32.27 v 117.18 h -70.92 v -32.26 h 28.91 v -22.22 c 0,-23.44 -16.74,-34.7 -27.08,-34.7 -25.27,0 -30.13,32.87 -30.13,85.22 0,54.18 8.52,76.09 29.82,76.09 17.66,0 24.96,-20.39 24.96,-36.52 z m 91.92,-152.79 v 217.31 h -43.83 v -217.31 z m 32.56,0 h 45.66 l 10.04,45.96 h 57.83 l 10.04,-45.96 h 45.65 l -57.52,217.31 h -54.17 z m 84.31,179.57 h 0.61 l 21,-97.7 h -42.61 l 21,97.7" /><path
         id="path70"
         style="fill:#ffffff;fill-opacity:1;fill-rule:nonzero;stroke:none"
         d="m 3736.57,2301.78 h 52.35 c 63.3,0 78.83,37.74 78.83,108.65 0,70.92 -15.53,108.66 -78.83,108.66 h -52.35 z m 19.48,200.87 h 31.65 c 42.61,0 60.57,-21.3 60.57,-92.52 0,-70.61 -17.96,-91.92 -60.57,-91.92 h -31.65 z m 159.17,-200.87 h 110.48 v 16.43 h -91 v 88.87 h 82.48 v 16.44 h -82.48 v 79.13 h 88.26 v 16.44 h -107.74 z m 169.83,200.87 h 33.17 c 29.83,0 46.27,-12.48 46.27,-45.04 0,-33.48 -20.4,-45.05 -46.27,-45.05 h -33.17 z m -19.48,-200.87 h 19.48 v 94.35 h 32.57 c 49.61,0 66.34,28 66.34,61.48 0,36.82 -17.65,61.48 -59.65,61.48 h -58.74 z m 175.31,79.74 33.48,122.35 h 0.61 l 33.48,-122.35 z m -42.61,-79.74 h 20.7 l 17.65,63.3 h 76.09 l 17.65,-63.3 h 20.7 l -64.22,217.31 h -24.35 z m 184.75,0 h 19.48 V 2401 h 36.82 c 35,0 42,-12.18 43.22,-50.53 l 0.61,-18.26 c 0.3,-11.56 1.22,-22.83 5.78,-30.43 h 22.83 c -7.61,8.52 -8.83,20.08 -9.13,31.95 l -0.61,23.74 c -0.91,33.48 -10.04,49 -37.13,51.44 v 0.61 c 28.91,5.48 39.26,28.91 39.26,55.09 0,33.78 -20.09,54.48 -56.31,54.48 h -64.82 z m 19.48,200.87 h 35.61 c 35.3,0 46.56,-16.13 46.56,-42.61 0,-28.61 -17.95,-42.61 -48.69,-42.61 h -33.48 z m 183.22,-200.87 h 19.48 v 200.87 h 56 v 16.44 h -131.48 v -16.44 h 56 z m 118.09,79.74 33.48,122.35 h 0.61 l 33.48,-122.35 z m -42.61,-79.74 h 20.7 l 17.65,63.3 h 76.09 l 17.65,-63.3 h 20.7 l -64.22,217.31 h -24.35 z m 186.57,0 h 19.48 v 199.04 h 0.61 l 56.3,-199.04 h 18.27 l 56.3,199.04 h 0.61 v -199.04 h 19.48 v 217.31 h -31.96 l -52.35,-192.97 h -0.61 l -52.35,192.97 h -33.78 z m 222.18,0 h 110.48 v 16.43 h -91 v 88.87 h 82.48 v 16.44 h -82.48 v 79.13 h 88.26 v 16.44 h -107.74 z m 150.35,0 h 19.47 v 189.31 h 0.61 l 83.09,-189.31 h 26.18 v 217.31 h -19.48 v -189.31 h -0.61 l -83.09,189.31 h -26.17 z m 219.43,0 h 19.48 v 200.87 h 56 v 16.44 h -131.48 v -16.44 h 56 z m 107.74,108.65 c 0,-77.91 24.96,-112.31 69.39,-112.31 44.44,0 69.4,34.4 69.4,112.31 0,77.92 -24.96,112.31 -69.4,112.31 -44.43,0 -69.39,-34.39 -69.39,-112.31 z m 19.48,0 c 0,70.31 18.87,95.87 49.91,95.87 31.05,0 49.92,-25.56 49.92,-95.87 0,-70.31 -18.87,-95.87 -49.92,-95.87 -31.04,0 -49.91,25.56 -49.91,95.87" /></g></g></svg>