<?xml version="1.0" encoding="UTF-8" standalone="no"?>
<svg
   xmlns:dc="http://purl.org/dc/elements/1.1/"
   xmlns:cc="http://creativecommons.org/ns#"
   xmlns:rdf="http://www.w3.org/1999/02/22-rdf-syntax-ns#"
   xmlns:svg="http://www.w3.org/2000/svg"
   xmlns="http://www.w3.org/2000/svg"
   viewBox="0 0 1122.52 793.70667"
   height="793.70667"
   width="1122.52"
   xml:space="preserve"
   id="svg2"
   version="1.1"><metadata
     id="metadata8"><rdf:RDF><cc:Work
         rdf:about=""><dc:format>image/svg+xml</dc:format><dc:type
           rdf:resource="http://purl.org/dc/dcmitype/StillImage" /></cc:Work></rdf:RDF></metadata><defs
     id="defs6" /><g
     transform="matrix(1.3333333,0,0,-1.3333333,0,793.70667)"
     id="g10"><g
       transform="scale(0.1)"
       id="g12"><path
         id="path14"
         style="fill:#ffffff;fill-opacity:1;fill-rule:nonzero;stroke:none"
         d="m 2969.5,2689.24 c 0,-56.62 -20.49,-99.08 -74.5,-99.08 -57,0 -75.62,39.48 -75.62,99.45 v 80.46 c 0,38.74 0.74,45.07 22.35,46.93 l 8.94,0.75 c 2.23,1.48 1.49,7.78 -0.75,8.89 -18.25,-0.74 -30.54,-1.07 -45.79,-1.07 -14.87,0 -27.53,0.33 -46.15,1.07 -2.24,-1.11 -2.98,-7.41 -0.75,-8.89 l 9.31,-0.75 c 21.6,-1.86 22.35,-8.19 22.35,-46.93 v -87.91 c 0,-44.32 9.29,-71.51 29,-87.9 18.25,-15.61 43.95,-20.44 69.66,-20.44 27.56,0 55.13,9.66 71.15,27.14 20.83,22.35 26.02,56.62 26.02,89.03 v 42.09 c 0,20.85 0,63.69 5.22,75.98 2.23,4.84 9.31,8.2 18.62,8.94 l 8.94,0.75 c 1.86,2.22 2.23,7.04 -0.75,8.89 -13.4,-0.74 -23.46,-1.07 -39.08,-1.07 -14.5,0 -28.28,0.33 -42.44,1.07 -2.24,-1.48 -2.98,-6.3 -0.75,-8.89 l 9.32,-0.75 c 9.31,-0.74 16.02,-3.35 18.62,-7.82 6.34,-11.18 7.08,-54.01 7.08,-77.1 v -42.84" /><path
         id="path16"
         style="fill:#ffffff;fill-opacity:1;fill-rule:nonzero;stroke:none"
         d="m 3294.91,2732.1 c 0,17.13 -0.74,63.31 5.59,76.71 1.49,2.98 8.94,5.96 20.85,7.82 l 5.22,0.74 c 2.23,2.23 2.23,7.42 -0.75,9.27 -12.66,-0.74 -22.34,-1.07 -38.33,-1.07 -14.13,0 -26.8,0.33 -43.93,1.07 -2.98,-1.11 -3.35,-7.04 -0.75,-9.27 l 6.34,-0.74 c 14.9,-1.86 20.86,-4.09 23.09,-7.45 7.08,-11.17 7.45,-59.58 7.45,-77.08 v -79.69 c 0,-7.82 0,-13.78 -1.49,-15.64 h -0.74 c -17.51,17.87 -35.76,38.73 -61.47,67.4 l -36.13,40.59 c -12.29,13.78 -56.25,62.93 -63.7,81.88 -4.84,-0.74 -11.16,-1.07 -17.1,-1.07 -6.69,0 -26.43,-0.04 -42.07,1.07 -2.98,-1.48 -2.98,-7.04 -0.74,-9.27 l 6.33,-0.74 c 8.94,-1.12 17.87,-3.72 23.09,-8.94 7.82,-8.56 8.19,-16.38 8.19,-26.81 v -107.62 c 0,-17.87 0.37,-63.3 -4.84,-76.71 -1.86,-4.1 -7.82,-6.33 -16.39,-7.45 l -10.05,-1.12 c -2.24,-2.25 -1.86,-7.5 0.74,-9.38 13.04,0.75 23.09,1.19 38.71,1.19 13.76,0 26.8,-0.44 43.56,-1.19 2.61,1.88 2.98,6.38 0.74,9.38 l -11.54,1.12 c -9.32,0.75 -16.77,2.98 -19,7.08 -6.33,11.17 -6.71,59.58 -6.71,77.08 v 81.18 c 0,11.17 0.38,19.74 1.87,24.21 h 0.74 c 7.82,-8.19 33.15,-38.73 43.21,-50.27 l 86.42,-98.32 c 32.41,-36.87 43.2,-49.91 47.65,-56.24 4.09,0 6.32,1.86 7.06,4.1 -1.12,9.68 -1.12,54 -1.12,65.17 v 89.01" /><path
         id="path18"
         style="fill:#ffffff;fill-opacity:1;fill-rule:nonzero;stroke:none"
         d="m 3404.01,2636.39 c 0,-39.47 -0.74,-44.68 -22.71,-47.29 l -9.31,-1.12 c -2.24,-2.25 -1.49,-8.25 0.74,-9.38 18.62,0.75 31.28,1.19 46.9,1.19 14.88,0 27.54,-0.44 46.16,-1.19 2.23,1.13 2.98,7.88 0.74,9.38 l -9.31,1.12 c -21.97,2.61 -22.71,7.82 -22.71,47.29 v 132.58 c 0,39.47 0.74,45.8 22.71,47.66 l 9.31,0.74 c 2.24,1.49 1.49,8.16 -0.74,9.27 -18.62,-0.74 -31.28,-1.07 -46.16,-1.07 -15.62,0 -28.28,0.33 -46.9,1.07 -2.23,-1.11 -2.98,-7.78 -0.74,-9.27 l 9.31,-0.74 c 21.97,-1.86 22.71,-8.19 22.71,-47.66 v -132.58" /><path
         id="path20"
         style="fill:#ffffff;fill-opacity:1;fill-rule:nonzero;stroke:none"
         d="m 3608.03,2624.47 c 6.33,-15.64 13.03,-33.89 17.13,-49.53 1.86,-0.75 3.72,-1.17 5.58,-1.17 1.49,0 2.98,0.42 4.1,1.17 6.33,19.74 23.83,62.94 38.73,97.2 l 20.11,45.8 c 16.76,37.99 31.28,68.15 41.71,85.66 4.84,7.82 10.43,12.29 19.36,13.03 l 11.18,0.74 c 1.86,1.86 1.86,7.79 -0.75,9.27 -12.29,-0.74 -23.83,-1.07 -36.12,-1.07 -14.15,0 -28.3,0.33 -38.73,1.07 -2.61,-1.48 -3.35,-7.04 -0.75,-9.27 l 6.71,-0.74 c 13.03,-1.49 16.75,-4.47 16.75,-7.08 0,-2.6 -0.37,-6.7 -3.35,-14.52 -6.33,-16.01 -23.83,-58.09 -34.63,-83.42 -8.57,-19.74 -24.21,-58.09 -35.75,-82.67 -18.62,42.45 -35.75,85.28 -52.88,128.48 -11.55,28.3 -17.88,48.41 -18.62,52.13 0.37,2.98 3.35,5.22 17.5,7.08 l 5.58,0.74 c 2.61,2.23 1.87,7.79 -0.74,9.27 -15.64,-0.74 -28.68,-1.07 -45.06,-1.07 -16.01,0 -27.93,0.33 -38.73,1.07 -2.93,-1.85 -3.31,-7.04 -0.73,-9.27 l 6.69,-0.74 c 16.01,-1.86 21.6,-9.68 30.16,-30.54 l 65.55,-161.62" /><path
         id="path22"
         style="fill:#ffffff;fill-opacity:1;fill-rule:nonzero;stroke:none"
         d="m 3827.55,2635.61 c 0,-39.06 -1.87,-44.65 -23.09,-46.51 l -12.29,-1.12 c -2.24,-2.24 -1.49,-8.2 0.74,-9.32 21.97,0.75 34.64,1.12 50.63,1.12 h 33.49 c 33.14,0 66.29,-0.37 99.81,-1.12 4.84,10.02 14.15,38.7 16.75,51.74 -1.49,3.35 -6.7,4.47 -9.31,2.61 -9.68,-19.38 -19.73,-32.42 -26.44,-36.14 -8.19,-4.1 -18.99,-5.59 -47.67,-5.59 -32.77,0 -40.59,4.1 -45.06,8.57 -5.96,6.33 -7.07,19 -7.07,38.74 v 52.54 c 0,9.68 1.11,10.05 12.29,10.05 h 21.6 c 14.52,0 23.46,-0.37 28.67,-1.86 7.45,-1.86 10.06,-7.45 11.55,-14.16 l 3.35,-14.53 c 1.86,-2.23 8.19,-2.23 9.68,0.38 0,8.19 -1.44,22.35 -1.44,35.74 0,14.13 1.44,28.66 1.44,37.6 -1.49,2.61 -7.82,2.61 -9.68,0.37 l -2.98,-15.27 c -1.86,-9.32 -4.47,-11.55 -8.94,-13.04 -4.47,-1.49 -16.01,-2.24 -31.65,-2.24 h -21.6 c -11.18,0 -12.29,0 -12.29,10.43 v 74.52 c 0,14.16 0,14.9 11.17,14.9 h 26.81 c 16.39,0 28.31,-0.37 36.13,-2.23 19.36,-4.85 22.71,-17.89 28.3,-35.4 1.86,-2.23 7.82,-1.49 9.31,0.75 -1.49,16.35 -3.72,43.17 -5.96,49.5 -4.47,-1.12 -26.44,-1.12 -50.27,-1.12 h -69.99 c -15.25,0 -27.91,0.37 -43.92,1.12 -2.24,-1.12 -2.98,-7.82 -0.75,-9.31 l 5.96,-0.75 c 21.97,-2.6 22.72,-8.19 22.72,-46.92 v -134.05" /><path
         id="path24"
         style="fill:#ffffff;fill-opacity:1;fill-rule:nonzero;stroke:none"
         d="m 4264.05,2582.71 c -10.05,0.75 -19.36,4.85 -25.7,10.44 -25.32,21.23 -45.04,51.04 -74.81,99.09 -1.86,2.97 -3.72,6.68 -1.86,8.9 18.62,7.45 46.51,26.82 46.51,62.22 0,26.08 -13.02,42.84 -30.87,52.15 -17.13,9.27 -39.12,11.13 -62.22,11.13 -36.49,0 -62.16,-1.11 -83.01,-2.97 -2.98,-1.48 -2.98,-7.41 -0.37,-9.27 l 11.91,-1.49 c 15.27,-1.87 16.39,-8.2 16.39,-43.59 v -133.67 c 0,-39.1 -0.75,-43.94 -22.35,-46.55 l -9.31,-1.12 c -2.23,-2.62 -1.48,-8.25 0.75,-9.38 17.5,0.76 30.91,1.19 46.52,1.19 14.88,0 27.55,-0.43 44.32,-1.19 2.23,1.13 2.98,7.51 0.74,9.38 l -7.82,1.12 c -21.62,2.98 -22.36,7.45 -22.36,46.55 v 46.92 c 0,7.82 0.74,8.19 17.51,8.19 14.91,0 20.87,-3.72 26.46,-11.92 11.55,-16.75 26.83,-42.45 36.51,-56.22 26.42,-37.67 45.39,-46.94 77.05,-46.94 7.07,0 13.03,0.74 16.38,1.85 1.87,1.48 1.49,4.44 -0.37,5.18 z m -108.33,128.86 c -10.81,-8.2 -24.97,-9.69 -38.38,-9.69 -19.01,0 -24.6,0.75 -25.71,1.87 -1.12,1.49 -1.12,5.59 -1.12,12.29 v 87.18 c 0,10.43 1.12,11.92 24.22,11.92 41.36,0 59.62,-27.94 59.62,-57.37 0,-25.34 -8.57,-38.37 -18.63,-46.2" /><path
         id="path26"
         style="fill:#ffffff;fill-opacity:1;fill-rule:nonzero;stroke:none"
         d="m 4431.72,2642.68 c 0,35.39 -23.05,56.99 -46.51,71.52 l -29.81,18.62 c -13.79,8.57 -31.68,24.21 -31.68,45.82 0,17.13 7.83,41.34 44.35,41.34 35.77,0 45.81,-24.21 50.64,-42.09 1.86,-2.22 7.81,-1.11 9.29,1.12 0,15.63 -3.34,36.47 -6.69,45.39 -2.97,0 -8.18,0.75 -13.01,2.24 -9.68,2.61 -23.09,4.84 -34.64,4.84 -48.45,0 -75.96,-28.63 -75.96,-64.02 0,-30.54 21.56,-51.77 40.18,-64.06 l 35.4,-23.1 c 27.2,-17.5 30.56,-35.76 30.56,-52.15 0,-22.34 -15.28,-42.83 -46.58,-42.83 -43.2,0 -58.44,36.5 -64.03,55.5 -1.49,2.23 -7.07,1.49 -8.93,-1.12 0.74,-17.51 5.58,-43.95 10.05,-52.15 7.07,-4.09 26.77,-13.73 58.07,-13.73 48.44,0 79.3,27.89 79.3,68.86" /><path
         id="path28"
         style="fill:#ffffff;fill-opacity:1;fill-rule:nonzero;stroke:none"
         d="m 4515.13,2636.39 c 0,-39.47 -0.74,-44.68 -22.72,-47.29 l -9.31,-1.12 c -2.23,-2.25 -1.49,-8.25 0.75,-9.38 18.62,0.75 31.28,1.19 46.9,1.19 14.87,0 27.53,-0.44 46.15,-1.19 2.24,1.13 2.98,7.88 0.75,9.38 l -9.31,1.12 c -21.97,2.61 -22.72,7.82 -22.72,47.29 v 132.58 c 0,39.47 0.75,45.8 22.72,47.66 l 9.31,0.74 c 2.23,1.49 1.49,8.16 -0.75,9.27 -18.62,-0.74 -31.28,-1.07 -46.15,-1.07 -15.62,0 -28.28,0.33 -46.9,1.07 -2.24,-1.11 -2.98,-7.78 -0.75,-9.27 l 9.31,-0.74 c 21.98,-1.86 22.72,-8.19 22.72,-47.66 v -132.58" /><path
         id="path30"
         style="fill:#ffffff;fill-opacity:1;fill-rule:nonzero;stroke:none"
         d="m 4888.44,2705.63 c 0,49.17 -25.29,91.63 -75.57,109.88 -24.21,8.9 -50.66,11.13 -81.95,11.13 -31.66,0 -61.79,-1.11 -93.44,-2.97 -3.72,-1.48 -3.35,-7.41 -0.37,-9.27 l 8.19,-1.12 c 15.64,-2.24 17.51,-10.06 17.51,-36.13 V 2635.6 c 0,-39.05 -0.75,-43.52 -22.35,-46.5 l -8.56,-1.12 c -2.24,-2.24 -1.49,-8.2 0.74,-9.32 17.5,0.69 30.91,1.06 46.53,1.06 13.01,0.05 36.85,-2.92 60.69,-2.92 28.68,0 59.23,4.82 83.45,17.83 42.44,23.1 65.13,63.7 65.13,111 z m -37.2,-0.74 c 0,-69.29 -32.41,-116.59 -104.67,-116.59 -23.47,0 -37.63,3.72 -45.82,15.27 -6.34,8.94 -7.45,20.86 -7.45,40.6 v 137.45 c 0,16.76 0.74,26.07 3.72,28.3 2.98,2.24 14.9,5.22 36.88,5.22 97.6,0 117.34,-69.28 117.34,-110.25" /><path
         id="path32"
         style="fill:#ffffff;fill-opacity:1;fill-rule:nonzero;stroke:none"
         d="m 5137.75,2587.98 -10.06,1.12 c -16.01,1.87 -20.85,7.45 -31.65,39.47 l -51.01,149.66 c -5.58,16.38 -11.54,33.51 -16.38,49.9 -0.75,2.61 -3.35,3.35 -5.59,3.35 -4.09,-4.84 -10.42,-11.54 -19.36,-14.15 1.12,-5.96 -1.11,-13.03 -6.33,-26.44 l -37.97,-100.55 c -15.64,-41.66 -26.07,-65.86 -32.77,-82.99 -5.21,-13.41 -13.41,-17.5 -22.34,-18.25 l -12.29,-1.12 c -2.23,-1.87 -1.49,-7.87 0.75,-9.38 10.05,0.38 23.45,1.19 35.74,1.19 17.5,-0.37 29.04,-0.43 38.72,-1.19 3.35,1.51 3.35,7.51 0.75,9.38 l -12.29,1.12 c -8.93,0.75 -10.8,2.98 -10.8,7.45 0,4.1 2.61,14.15 8.19,30.9 l 13.04,39.1 c 2.6,7.82 4.84,8.94 14.15,8.94 h 56.22 c 11.17,0 12.66,-1.12 15.26,-9.31 l 16.39,-50.64 c 2.98,-8.94 4.84,-15.64 4.84,-19.73 0,-3.73 -5.22,-5.96 -13.04,-6.71 l -10.79,-1.12 c -2.61,-1.87 -2.24,-7.87 0.74,-9.38 10.8,0.38 24.95,1.19 42.82,1.19 16.76,0 29.79,-0.43 45.06,-1.19 1.85,1.51 2.6,7.51 0,9.38 z m -106.12,102.36 h -45.8 c -10.43,0 -10.8,0.37 -7.82,8.94 l 23.46,64.8 c 4.1,11.17 7.82,20.11 8.94,21.97 h 0.74 c 2.23,-4.47 5.58,-14.53 8.56,-23.46 l 20.11,-60.71 c 3.35,-10.05 2.61,-11.54 -8.19,-11.54" /><path
         id="path34"
         style="fill:#ffffff;fill-opacity:1;fill-rule:nonzero;stroke:none"
         d="m 5427.97,2705.63 c 0,49.17 -25.29,91.63 -75.56,109.88 -24.22,8.9 -50.67,11.13 -81.96,11.13 -31.66,0 -61.79,-1.11 -93.44,-2.97 -3.72,-1.48 -3.35,-7.41 -0.37,-9.27 l 8.2,-1.12 c 15.64,-2.24 17.5,-10.06 17.5,-36.13 V 2635.6 c 0,-39.05 -0.75,-43.52 -22.35,-46.5 l -8.56,-1.12 c -2.24,-2.24 -1.49,-8.2 0.74,-9.32 17.51,0.69 30.91,1.06 46.53,1.06 13.01,0.05 36.85,-2.92 60.69,-2.92 28.69,0 59.23,4.82 83.45,17.83 42.44,23.1 65.13,63.7 65.13,111 z m -37.19,-0.74 c 0,-69.29 -32.41,-116.59 -104.68,-116.59 -23.47,0 -37.63,3.72 -45.82,15.27 -6.33,8.94 -7.45,20.86 -7.45,40.6 v 137.45 c 0,16.76 0.74,26.07 3.72,28.3 2.98,2.24 14.9,5.22 36.88,5.22 97.6,0 117.35,-69.28 117.35,-110.25" /><path
         id="path36"
         style="fill:#ffffff;fill-opacity:1;fill-rule:nonzero;stroke:none"
         d="m 5496.97,2635.61 c 0,-39.06 -1.86,-44.65 -23.09,-46.51 l -12.29,-1.12 c -2.24,-2.24 -1.49,-8.2 0.74,-9.32 21.98,0.75 34.64,1.12 50.63,1.12 h 33.49 c 33.15,0 66.29,-0.37 99.81,-1.12 4.84,10.02 14.15,38.7 16.75,51.74 -1.48,3.35 -6.7,4.47 -9.31,2.61 -9.68,-19.38 -19.73,-32.42 -26.44,-36.14 -8.19,-4.1 -18.99,-5.59 -47.66,-5.59 -32.78,0 -40.6,4.1 -45.07,8.57 -5.95,6.33 -7.07,19 -7.07,38.74 v 52.54 c 0,9.68 1.12,10.05 12.29,10.05 h 21.6 c 14.52,0 23.46,-0.37 28.67,-1.86 7.45,-1.86 10.06,-7.45 11.55,-14.16 l 3.35,-14.53 c 1.86,-2.23 8.19,-2.23 9.68,0.38 0,8.19 -1.44,22.35 -1.44,35.74 0,14.13 1.44,28.66 1.44,37.6 -1.49,2.61 -7.82,2.61 -9.68,0.37 l -2.98,-15.27 c -1.86,-9.32 -4.47,-11.55 -8.94,-13.04 -4.47,-1.49 -16.01,-2.24 -31.65,-2.24 h -21.6 c -11.17,0 -12.29,0 -12.29,10.43 v 74.52 c 0,14.16 0,14.9 11.17,14.9 h 26.81 c 16.39,0 28.31,-0.37 36.13,-2.23 19.36,-4.85 22.71,-17.89 28.3,-35.4 1.86,-2.23 7.82,-1.49 9.31,0.75 -1.49,16.35 -3.72,43.17 -5.96,49.5 -4.47,-1.12 -26.44,-1.12 -50.27,-1.12 h -69.99 c -15.25,0 -27.91,0.37 -43.92,1.12 -2.24,-1.12 -2.98,-7.82 -0.75,-9.31 l 5.96,-0.75 c 21.97,-2.6 22.72,-8.19 22.72,-46.92 v -134.05" /><path
         id="path38"
         style="fill:#ffffff;fill-opacity:1;fill-rule:nonzero;stroke:none"
         d="m 2818.83,2405.04 c 0,11.93 0.37,13.42 20.12,13.42 38.75,0 59.99,-23.47 59.99,-59.61 0,-32.41 -14.53,-55.14 -54.77,-62.59 -2.24,-0.74 -2.24,-6.29 0.37,-7.4 15.28,0 35.03,3.33 51.42,11.13 16,7.82 37.2,24.96 37.2,59.23 0,25.71 -12.65,45.08 -29.75,55.88 -17.51,10.77 -40.61,14.85 -71.54,14.85 -30.89,0 -53.96,-0.37 -73.7,-2.96 -2.97,-1.49 -3.35,-7.05 -0.74,-9.28 l 13.41,-1.49 c 16.75,-1.86 17.5,-8.2 17.5,-39.86 v -137.4 c 0,-39.1 -0.75,-43.56 -22.35,-46.54 l -7.82,-1.12 c -2.23,-2.25 -1.48,-8.26 0.75,-9.38 16.39,0.75 29.79,1.19 45.41,1.19 14.87,0 27.17,-0.44 48.41,-1.19 2.23,1.12 2.98,7.5 0.74,9.38 l -10.06,1.12 c -23.84,2.6 -24.59,7.44 -24.59,46.54 v 166.08" /><path
         id="path40"
         style="fill:#ffffff;fill-opacity:1;fill-rule:nonzero;stroke:none"
         d="m 3224.81,2307.09 c 0,65.55 -43.16,127.71 -129.2,127.71 -76.74,0 -132.56,-56.94 -132.56,-131.44 0,-67.05 49.86,-126.22 132.56,-126.22 71.89,0 129.2,54.7 129.2,129.95 z m -37.19,-11.55 c 0,-73.38 -42.47,-106.9 -87.17,-106.9 -73.38,0 -100.2,71.51 -100.2,126.64 0,81.57 50.28,108.02 89.02,108.02 71.15,0 98.35,-66.3 98.35,-127.76" /><path
         id="path42"
         style="fill:#ffffff;fill-opacity:1;fill-rule:nonzero;stroke:none"
         d="m 3496.37,2186.03 c -10.06,0.74 -19.37,4.84 -25.7,10.43 -25.32,21.24 -45.04,51.04 -74.81,99.1 -1.87,2.96 -3.73,6.67 -1.87,8.9 18.62,7.45 46.52,26.82 46.52,62.21 0,26.08 -13.02,42.85 -30.87,52.16 -17.14,9.27 -39.12,11.13 -62.22,11.13 -36.49,0 -62.16,-1.12 -83.02,-2.97 -2.98,-1.49 -2.98,-7.42 -0.37,-9.28 l 11.92,-1.49 c 15.27,-1.86 16.39,-8.19 16.39,-43.59 v -133.66 c 0,-39.1 -0.75,-43.95 -22.35,-46.55 l -9.31,-1.12 c -2.24,-2.63 -1.49,-8.25 0.74,-9.38 17.51,0.75 30.92,1.19 46.53,1.19 14.88,0 27.54,-0.44 44.31,-1.19 2.24,1.13 2.98,7.5 0.75,9.38 l -7.83,1.12 c -21.61,2.98 -22.35,7.45 -22.35,46.55 v 46.91 c 0,7.82 0.74,8.19 17.51,8.19 14.9,0 20.86,-3.72 26.45,-11.91 11.55,-16.76 26.83,-42.45 36.52,-56.23 26.41,-37.66 45.39,-46.93 77.05,-46.93 7.07,0 13.03,0.74 16.38,1.85 1.86,1.48 1.49,4.44 -0.37,5.18 z m -108.34,128.86 c -10.8,-8.2 -24.96,-9.69 -38.38,-9.69 -19,0 -24.59,0.74 -25.71,1.86 -1.11,1.49 -1.11,5.59 -1.11,12.3 v 87.18 c 0,10.43 1.11,11.92 24.21,11.92 41.37,0 59.62,-27.94 59.62,-57.38 0,-25.33 -8.57,-38.37 -18.63,-46.19" /><path
         id="path44"
         style="fill:#ffffff;fill-opacity:1;fill-rule:nonzero;stroke:none"
         d="m 3615.7,2404.68 c 0,12.29 -0.37,12.66 10.81,12.66 h 26.45 c 20.5,0 34.65,-2.98 43.22,-9.31 5.59,-4.1 8.2,-17.87 9.32,-27.18 1.85,-2.24 8.15,-2.24 9.63,0.74 -1.11,11.17 1.49,41.31 5.59,56.56 -0.74,1.49 -4.84,1.86 -6.7,1.11 -5.56,-9.68 -8.89,-10.42 -29.01,-10.42 h -150.82 c -17.13,0 -29.42,-0.37 -31.65,11.54 -1.12,1.12 -5.96,0.75 -7.08,0 -2.6,-14.88 -8.19,-38.68 -14.15,-55.44 1.49,-2.98 6.7,-4.84 9.68,-2.6 4.1,9.31 7.82,17.5 16.76,25.69 9.31,8.57 29.79,9.31 45.81,9.31 h 20.48 c 11.17,0 11.17,-0.37 11.17,-11.92 v -166.45 c 0,-39.11 -1.86,-44.69 -23.09,-46.55 l -13.4,-1.12 c -2.98,-1.88 -2.24,-8.26 0,-9.38 23.83,0.75 36.86,1.19 51.74,1.19 14.87,0 27.54,-0.44 48.78,-1.19 2.23,1.12 2.98,7.88 0.74,9.38 l -11.92,1.12 c -21.61,1.86 -22.36,7.44 -22.36,46.55 v 165.71" /><path
         id="path46"
         style="fill:#ffffff;fill-opacity:1;fill-rule:nonzero;stroke:none"
         d="m 3952.42,2292.56 c 0,-56.62 -20.49,-99.08 -74.51,-99.08 -56.99,0 -75.62,39.48 -75.62,99.45 v 80.45 c 0,38.74 0.75,45.07 22.35,46.94 l 8.94,0.74 c 2.24,1.48 1.49,7.78 -0.74,8.89 -18.25,-0.74 -30.55,-1.07 -45.79,-1.07 -14.88,0 -27.54,0.33 -46.16,1.07 -2.23,-1.11 -2.98,-7.41 -0.74,-8.89 l 9.31,-0.74 c 21.6,-1.87 22.34,-8.2 22.34,-46.94 v -87.9 c 0,-44.33 9.3,-71.52 29.01,-87.91 18.25,-15.61 43.95,-20.43 69.65,-20.43 27.57,0 55.14,9.65 71.16,27.14 20.82,22.35 26.02,56.62 26.02,89.02 v 42.09 c 0,20.86 0,63.7 5.22,75.99 2.23,4.84 9.31,8.19 18.62,8.94 l 8.93,0.74 c 1.87,2.22 2.24,7.04 -0.74,8.89 -13.41,-0.74 -23.46,-1.07 -39.08,-1.07 -14.5,0 -28.29,0.33 -42.44,1.07 -2.24,-1.48 -2.98,-6.29 -0.75,-8.89 l 9.31,-0.74 c 9.32,-0.75 16.02,-3.36 18.63,-7.83 6.33,-11.17 7.08,-54.01 7.08,-77.1 v -42.83" /><path
         id="path48"
         style="fill:#ffffff;fill-opacity:1;fill-rule:nonzero;stroke:none"
         d="m 4012.91,2304.48 c 0,-48.05 23.06,-81.95 52.84,-102.44 27.18,-18.23 59.21,-24.9 92.73,-24.9 23.83,0 50.64,5.56 58.84,8.53 4.09,1.48 8.56,2.96 13.03,3.71 5.59,7.08 15.27,31.66 17.88,51.03 -1.49,2.61 -7.08,3.35 -9.69,1.49 -8.56,-21.98 -29.79,-53.27 -77.83,-53.27 -61.07,0 -110.6,43.21 -110.6,121.43 0,77.11 48.41,113.24 105.39,113.24 54,0 70.75,-29.06 76.34,-54.38 2.61,-2.23 8.19,-1.86 10.06,0.75 -2.98,22.7 -4.85,46.14 -5.22,54.7 -3.35,-0.37 -5.96,0.37 -10.43,1.49 -17.5,4.86 -45.8,8.94 -65.91,8.94 -38.73,0 -73.37,-10.39 -100.55,-31.62 -28.28,-21.97 -46.88,-57.36 -46.88,-98.7" /><path
         id="path50"
         style="fill:#ffffff;fill-opacity:1;fill-rule:nonzero;stroke:none"
         d="m 4504.4,2191.3 -10.05,1.12 c -16.01,1.86 -20.85,7.44 -31.65,39.47 l -51.01,149.65 c -5.58,16.39 -11.54,33.52 -16.38,49.91 -0.75,2.6 -3.35,3.35 -5.59,3.35 -4.09,-4.84 -10.42,-11.55 -19.36,-14.16 1.12,-5.95 -1.12,-13.03 -6.33,-26.44 l -37.98,-100.55 c -15.64,-41.65 -26.06,-65.86 -32.76,-82.99 -5.21,-13.4 -13.41,-17.5 -22.34,-18.24 l -12.29,-1.12 c -2.24,-1.88 -1.49,-7.88 0.74,-9.38 10.06,0.38 23.46,1.19 35.75,1.19 17.5,-0.38 29.04,-0.44 38.72,-1.19 3.35,1.5 3.35,7.5 0.75,9.38 l -12.29,1.12 c -8.94,0.74 -10.8,2.98 -10.8,7.44 0,4.1 2.61,14.16 8.19,30.91 l 13.03,39.1 c 2.61,7.82 4.85,8.94 14.15,8.94 h 56.23 c 11.17,0 12.66,-1.12 15.26,-9.31 l 16.38,-50.64 c 2.98,-8.94 4.85,-15.64 4.85,-19.74 0,-3.72 -5.22,-5.96 -13.03,-6.7 l -10.8,-1.12 c -2.61,-1.88 -2.24,-7.88 0.74,-9.38 10.8,0.38 24.95,1.19 42.82,1.19 16.76,0 29.79,-0.44 45.05,-1.19 1.86,1.5 2.61,7.5 0,9.38 z m -106.11,102.35 h -45.8 c -10.43,0 -10.8,0.38 -7.82,8.94 l 23.46,64.8 c 4.09,11.17 7.82,20.11 8.93,21.97 h 0.75 c 2.23,-4.46 5.58,-14.52 8.56,-23.46 l 20.11,-60.7 c 3.35,-10.05 2.6,-11.55 -8.19,-11.55" /><path
         id="path52"
         style="fill:#ffffff;fill-opacity:1;fill-rule:nonzero;stroke:none"
         d="m 4567.98,2238.92 c 0,-39.06 -0.75,-44.27 -22.35,-46.5 l -11.17,-1.12 c -2.23,-2.25 -1.49,-8.2 0.75,-9.32 20.85,0.74 32.77,1.12 48.38,1.12 h 34.24 c 38.36,0 73.74,-0.38 92.73,-1.12 5.22,10.02 15.64,48 15.64,52.1 0,2.6 -7.07,4.09 -9.31,2.23 -7.44,-19 -17.13,-32.4 -24.58,-36.87 -5.95,-3.36 -13.77,-4.85 -45.43,-4.85 -29.42,0 -36.5,4.47 -40.59,8.57 -6.71,7.08 -7.82,16.76 -7.82,40.23 v 129.62 c 0,39.12 0.74,45.08 22.71,46.94 l 8.94,0.74 c 2.24,1.48 1.49,8.15 -0.74,9.26 -18.62,-0.74 -31.28,-1.07 -45.79,-1.07 -14.87,0 -27.53,0.33 -48.38,1.07 -2.24,-1.11 -2.98,-7.78 -0.75,-9.26 l 9.31,-0.74 c 23.46,-1.86 24.21,-7.82 24.21,-46.94 v -134.09" /><path
         id="path54"
         style="fill:#ffffff;fill-opacity:1;fill-rule:nonzero;stroke:none"
         d="m 4787.14,2238.93 c 0,-39.07 -1.87,-44.65 -23.09,-46.51 l -12.29,-1.12 c -2.24,-2.25 -1.49,-8.2 0.74,-9.32 21.97,0.74 34.64,1.12 50.62,1.12 h 33.5 c 33.14,0 66.29,-0.38 99.8,-1.12 4.85,10.02 14.16,38.69 16.76,51.73 -1.49,3.36 -6.7,4.47 -9.31,2.61 -9.68,-19.37 -19.73,-32.41 -26.44,-36.14 -8.19,-4.1 -18.99,-5.59 -47.67,-5.59 -32.77,0 -40.59,4.1 -45.06,8.57 -5.96,6.34 -7.07,19 -7.07,38.75 v 52.53 c 0,9.69 1.11,10.06 12.29,10.06 h 21.6 c 14.52,0 23.46,-0.37 28.67,-1.86 7.45,-1.87 10.06,-7.45 11.55,-14.16 l 3.35,-14.53 c 1.86,-2.24 8.19,-2.24 9.68,0.37 0,8.2 -1.44,22.36 -1.44,35.75 0,14.12 1.44,28.65 1.44,37.6 -1.49,2.6 -7.82,2.6 -9.68,0.37 l -2.98,-15.28 c -1.86,-9.31 -4.47,-11.55 -8.94,-13.04 -4.47,-1.49 -16.01,-2.23 -31.65,-2.23 h -21.6 c -11.18,0 -12.29,0 -12.29,10.43 v 74.52 c 0,14.15 0,14.9 11.17,14.9 h 26.81 c 16.39,0 28.3,-0.37 36.13,-2.24 19.36,-4.84 22.71,-17.88 28.3,-35.39 1.86,-2.24 7.82,-1.49 9.31,0.74 -1.49,16.36 -3.73,43.17 -5.96,49.5 -4.47,-1.11 -26.44,-1.11 -50.27,-1.11 h -70 c -15.24,0 -27.9,0.37 -43.91,1.11 -2.24,-1.11 -2.98,-7.82 -0.75,-9.31 l 5.96,-0.74 c 21.97,-2.61 22.72,-8.19 22.72,-46.92 v -134.05" /><path
         id="path56"
         style="fill:#ffffff;fill-opacity:1;fill-rule:nonzero;stroke:none"
         d="m 5214.24,2335.41 c 0,17.13 -0.74,63.31 5.59,76.72 1.49,2.98 8.93,5.96 20.85,7.82 l 5.21,0.74 c 2.24,2.22 2.24,7.41 -0.74,9.26 -12.66,-0.74 -22.35,-1.07 -38.34,-1.07 -14.13,0 -26.79,0.33 -43.93,1.07 -2.98,-1.11 -3.35,-7.04 -0.74,-9.26 l 6.33,-0.74 c 14.9,-1.86 20.86,-4.1 23.1,-7.45 7.08,-11.17 7.45,-59.58 7.45,-77.09 v -79.69 c 0,-7.82 0,-13.78 -1.49,-15.64 h -0.75 c -17.51,17.88 -35.76,38.73 -61.46,67.41 l -36.13,40.59 c -12.3,13.77 -56.25,62.93 -63.7,81.87 -4.85,-0.74 -11.17,-1.07 -17.11,-1.07 -6.68,0 -26.42,-0.04 -42.06,1.07 -2.98,-1.48 -2.98,-7.04 -0.75,-9.26 l 6.33,-0.74 c 8.94,-1.12 17.88,-3.73 23.09,-8.94 7.82,-8.57 8.2,-16.39 8.2,-26.81 v -107.62 c 0,-17.88 0.37,-63.31 -4.84,-76.72 -1.87,-4.09 -7.83,-6.33 -16.39,-7.44 l -10.06,-1.12 c -2.23,-2.25 -1.86,-7.51 0.75,-9.38 13.03,0.75 23.09,1.19 38.7,1.19 13.76,0 26.8,-0.44 43.56,-1.19 2.61,1.87 2.98,6.38 0.75,9.38 l -11.55,1.12 c -9.31,0.74 -16.76,2.98 -19,7.07 -6.33,11.17 -6.7,59.58 -6.7,77.09 v 81.18 c 0,11.17 0.37,19.73 1.86,24.2 h 0.75 c 7.82,-8.19 33.15,-38.73 43.21,-50.27 l 86.42,-98.31 c 32.41,-36.88 43.19,-49.91 47.65,-56.24 4.08,0 6.31,1.86 7.06,4.09 -1.12,9.69 -1.12,54 -1.12,65.17 v 89.01" /><path
         id="path58"
         style="fill:#ffffff;fill-opacity:1;fill-rule:nonzero;stroke:none"
         d="m 5424.87,2246 c 0,35.38 -23.05,56.99 -46.52,71.51 l -29.81,18.63 c -13.78,8.56 -31.67,24.21 -31.67,45.81 0,17.14 7.83,41.35 44.34,41.35 35.78,0 45.81,-24.21 50.65,-42.09 1.86,-2.23 7.8,-1.11 9.29,1.12 0,15.63 -3.34,36.46 -6.69,45.39 -2.98,0 -8.18,0.74 -13.01,2.23 -9.68,2.62 -23.1,4.85 -34.65,4.85 -48.44,0 -75.95,-28.64 -75.95,-64.02 0,-30.55 21.56,-51.78 40.18,-64.07 l 35.4,-23.09 c 27.2,-17.51 30.56,-35.76 30.56,-52.15 0,-22.35 -15.28,-42.84 -46.58,-42.84 -43.2,0 -58.45,36.51 -64.03,55.5 -1.49,2.24 -7.08,1.49 -8.94,-1.11 0.75,-17.51 5.59,-43.96 10.06,-52.15 7.07,-4.09 26.77,-13.73 58.06,-13.73 48.44,0 79.31,27.88 79.31,68.86" /><path
         id="path60"
         style="fill:#ffffff;fill-opacity:1;fill-rule:nonzero;stroke:none"
         d="m 5497.16,2238.93 c 0,-39.07 -1.86,-44.65 -23.09,-46.51 l -12.29,-1.12 c -2.23,-2.25 -1.49,-8.2 0.75,-9.32 21.97,0.74 34.63,1.12 50.62,1.12 h 33.5 c 33.14,0 66.28,-0.38 99.8,-1.12 4.84,10.02 14.15,38.69 16.76,51.73 -1.49,3.36 -6.7,4.47 -9.31,2.61 -9.68,-19.37 -19.74,-32.41 -26.44,-36.14 -8.19,-4.1 -18.99,-5.59 -47.67,-5.59 -32.77,0 -40.59,4.1 -45.06,8.57 -5.96,6.34 -7.08,19 -7.08,38.75 v 52.53 c 0,9.69 1.12,10.06 12.29,10.06 h 21.6 c 14.53,0 23.46,-0.37 28.68,-1.86 7.45,-1.87 10.05,-7.45 11.54,-14.16 l 3.35,-14.53 c 1.87,-2.24 8.2,-2.24 9.69,0.37 0,8.2 -1.45,22.36 -1.45,35.75 0,14.12 1.45,28.65 1.45,37.6 -1.49,2.6 -7.82,2.6 -9.69,0.37 l -2.97,-15.28 c -1.87,-9.31 -4.47,-11.55 -8.94,-13.04 -4.47,-1.49 -16.02,-2.23 -31.66,-2.23 h -21.6 c -11.17,0 -12.29,0 -12.29,10.43 v 74.52 c 0,14.15 0,14.9 11.18,14.9 h 26.81 c 16.38,0 28.3,-0.37 36.12,-2.24 19.37,-4.84 22.72,-17.88 28.31,-35.39 1.86,-2.24 7.82,-1.49 9.31,0.74 -1.49,16.36 -3.73,43.17 -5.96,49.5 -4.47,-1.11 -26.44,-1.11 -50.28,-1.11 h -69.99 c -15.24,0 -27.9,0.37 -43.92,1.11 -2.23,-1.11 -2.98,-7.82 -0.74,-9.31 l 5.96,-0.74 c 21.97,-2.61 22.71,-8.19 22.71,-46.92 v -134.05" /><path
         id="path62"
         style="fill:#86d0f5;fill-opacity:1;fill-rule:nonzero;stroke:none"
         d="m 4207.94,4415.34 c 378.43,0 687.23,-305.78 687.23,-684.2 0,-378.44 -308.8,-684.22 -687.23,-684.22 -378.44,0 -684.21,305.78 -684.21,684.22 0,378.42 305.77,684.2 684.21,684.2" /><path
         id="path64"
         style="fill:#ffffff;fill-opacity:1;fill-rule:nonzero;stroke:none"
         d="m 4410.78,3476.81 v 21.2 c 48.44,0 75.69,21.22 75.69,51.48 v 426.86 h -84.78 v 24.21 h 351.19 v -124.11 h -18.16 c 0,48.44 -30.28,99.9 -84.77,99.9 h -90.82 v -426.86 c 0,-42.39 42.38,-51.48 78.71,-51.48 v -21.2 z m -747.79,523.75 v -24.21 c 51.47,0 78.71,-21.19 78.71,-51.46 V 3628.2 c 0,-108.97 66.61,-163.49 205.87,-166.51 27.25,0 57.53,6.06 81.75,15.12 h 217.98 v 21.2 c -60.56,0 -105.97,15.14 -105.97,75.69 v 402.65 c 99.91,0 169.54,-30.26 169.54,-130.19 3.03,-87.8 -48.44,-127.15 -130.18,-130.16 v -15.15 c 118.08,-3.01 208.9,30.29 205.87,148.35 0,84.76 -45.41,142.29 -157.43,151.36 h -242.2 v -24.21 c 48.44,0 78.72,-15.14 78.72,-51.46 V 3540.4 c 0,-21.17 -66.6,-51.46 -118.08,-48.44 -87.79,9.09 -133.2,60.55 -133.2,133.2 v 299.73 c 0,45.41 42.38,51.46 75.69,51.46 l 3.02,24.21 h -230.09" /><path
         id="path66"
         style="fill:#ffffff;fill-opacity:1;fill-rule:nonzero;stroke:none"
         d="m 2802.1,1742.82 h 35.17 c 49.73,0.25 71.32,-20.85 71.32,-72.52 0,-51.66 -21.59,-72.76 -71.32,-72.52 h -35.17 z m -16.46,-159.08 h 59.88 c 52.15,1.21 79.53,29.8 79.53,86.56 0,56.76 -27.38,85.35 -79.53,86.56 h -59.88 z m 216.05,128.74 c -38.33,0 -59.15,-30.29 -59.15,-66.19 0,-35.9 20.82,-66.18 59.15,-66.18 38.33,0 59.16,30.28 59.16,66.18 0,35.9 -20.83,66.19 -59.16,66.19 z m 0,-12.82 c 29.36,0 43.91,-26.68 43.91,-53.37 0,-26.68 -14.55,-53.36 -43.91,-53.36 -29.35,0 -43.9,26.68 -43.9,53.36 0,26.69 14.55,53.37 43.9,53.37 z m 252.92,-30.08 c -3.4,28.62 -24.01,42.9 -50.69,42.9 -38.31,0 -59.14,-30.29 -59.14,-66.19 0,-35.9 20.83,-66.18 59.14,-66.18 27.89,0 47.53,18.4 51.65,48.48 h -15.27 c -1.94,-20.86 -17.46,-35.66 -36.38,-35.66 -29.34,0 -43.89,26.68 -43.89,53.36 0,26.69 14.55,53.37 43.89,53.37 19.89,0 31.29,-11.4 35.41,-30.08 z m 75.18,42.9 c -38.32,0 -59.15,-30.29 -59.15,-66.19 0,-35.9 20.83,-66.18 59.15,-66.18 38.33,0 59.16,30.28 59.16,66.18 0,35.9 -20.83,66.19 -59.16,66.19 z m 0,-12.82 c 29.36,0 43.91,-26.68 43.91,-53.37 0,-26.68 -14.55,-53.36 -43.91,-53.36 -29.35,0 -43.9,26.68 -43.9,53.36 0,26.69 14.55,53.37 43.9,53.37 z m 81.74,-115.92 h 15.25 v 73 c 0.48,24.49 15.04,42.92 39.3,42.92 24.75,0 31.78,-16.25 31.78,-37.83 v -78.09 h 15.25 v 80.51 c 0,29.83 -10.65,48.23 -45.82,48.23 -17.71,0 -34.45,-10.16 -40.03,-25.19 h -0.48 v 21.55 h -15.25 z m 130.22,0 H 3557 v 73 c 0.48,24.49 15.04,42.92 39.3,42.92 24.75,0 31.78,-16.25 31.78,-37.83 v -78.09 h 15.25 v 80.51 c 0,29.83 -10.65,48.23 -45.82,48.23 -17.71,0 -34.45,-10.16 -40.03,-25.19 H 3557 v 69.57 h -15.25 z m 235.68,58.45 c 1.21,35.14 -14.77,70.29 -55.03,70.29 -39.79,0 -56.49,-33.2 -56.49,-66.18 0,-35.66 16.7,-66.19 56.49,-66.19 31.53,0 48.01,16.46 54.54,44.85 h -15.24 c -4.86,-18.93 -16.99,-32.03 -39.3,-32.03 -29.36,0 -41,26.93 -41.24,49.26 z m -96.27,12.82 c 2.42,22.81 16.25,44.65 41.24,44.65 24.74,0 39.05,-21.6 39.78,-44.65 z m 220.43,14.57 c -3.4,28.62 -24.01,42.9 -50.69,42.9 -38.31,0 -59.14,-30.29 -59.14,-66.19 0,-35.9 20.83,-66.18 59.14,-66.18 27.89,0 47.53,18.4 51.66,48.48 h -15.28 c -1.94,-20.86 -17.46,-35.66 -36.38,-35.66 -29.34,0 -43.89,26.68 -43.89,53.36 0,26.69 14.55,53.37 43.89,53.37 19.89,0 31.29,-11.4 35.41,-30.08 z m 22.58,-85.84 h 15.25 v 125.1 h -15.25 z m 0,148.66 h 15.25 v 24.46 h -15.25 z m 44.62,-148.66 h 15.25 v 69.84 c 0.24,26.19 10.91,46.08 37.36,46.08 19.41,0 26.44,-14.07 26.2,-31.04 v -84.88 h 15.25 v 70.81 c 0,23.28 7.52,45.11 33.96,45.11 21.84,0 29.6,-11.16 29.6,-31.77 v -84.15 h 15.25 v 84.88 c 0,29.58 -14.04,43.86 -41.45,43.86 -16.5,0 -32.27,-7.98 -39.78,-24.46 -4.6,16.48 -19.38,24.46 -35.88,24.46 -19.89,0 -32.99,-9.68 -41,-24.7 h -0.72 v 21.06 h -14.04 z m 307.21,58.45 c 1.22,35.14 -14.76,70.29 -55.03,70.29 -39.78,0 -56.49,-33.2 -56.49,-66.18 0,-35.66 16.71,-66.19 56.49,-66.19 31.54,0 48.01,16.46 54.55,44.85 h -15.25 c -4.85,-18.93 -16.98,-32.03 -39.3,-32.03 -29.35,0 -41,26.93 -41.24,49.26 z m -96.27,12.82 c 2.43,22.81 16.25,44.65 41.24,44.65 24.75,0 39.06,-21.6 39.79,-44.65 z m 116.67,-71.27 h 15.25 v 73 c 0.49,24.49 15.04,42.92 39.3,42.92 24.75,0 31.78,-16.25 31.78,-37.83 v -78.09 h 15.25 v 80.51 c 0,29.83 -10.65,48.23 -45.82,48.23 -17.71,0 -34.44,-10.16 -40.02,-25.19 h -0.49 v 21.55 h -15.25 z m 154.68,162.69 h -15.24 v -37.59 h -21.83 v -12.82 h 21.83 v -85.63 c -0.25,-21.33 6.77,-28.1 27.13,-28.1 4.6,0 8.97,0.48 13.58,0.48 v 13.07 c -4.37,-0.49 -8.73,-0.73 -13.1,-0.73 -10.91,0.73 -12.37,6.55 -12.37,16.5 v 84.41 h 25.47 v 12.82 h -25.47 z m 100.41,-33.95 c -38.33,0 -59.15,-30.29 -59.15,-66.19 0,-35.9 20.82,-66.18 59.15,-66.18 38.33,0 59.16,30.28 59.16,66.18 0,35.9 -20.83,66.19 -59.16,66.19 z m 0,-12.82 c 29.35,0 43.91,-26.68 43.91,-53.37 0,-26.68 -14.56,-53.36 -43.91,-53.36 -29.35,0 -43.91,26.68 -43.91,53.36 0,26.69 14.56,53.37 43.91,53.37 z m 229.42,-67.43 c 0.24,-24.5 -20.38,-39.3 -43.67,-39.3 -14.31,0 -27.9,9.46 -27.9,24.74 0,24.5 32.27,24.26 58.23,28.87 4.12,0.72 10.92,1.94 12.86,5.58 h 0.48 z m -66.23,38.32 c 0.48,20.38 14.56,29.11 33.48,29.11 17.95,0 32.75,-5.09 32.75,-25.71 0,-13.83 -7.03,-15.53 -19.65,-16.98 -32.99,-3.88 -67.16,-5.1 -67.16,-40.27 0,-25.22 18.88,-36.59 41.93,-36.59 24.02,0 34.93,9.19 45.61,25.43 h 0.48 c 0,-13.09 2.42,-21.8 17.92,-21.8 4.12,0 6.55,0.25 9.94,0.97 v 12.83 c -1.21,-0.49 -3.15,-0.97 -4.85,-0.97 -6.06,0 -8.97,3.39 -8.97,9.21 v 66.47 c 0,33.46 -23.98,40.23 -46.06,40.23 -28.63,0 -49.22,-12.58 -50.67,-41.93 z m 36.63,55.78 h 12.38 l -25.48,34.17 h -18.92 z m 243,-80.04 c 0,-25.95 -11.89,-53.36 -41,-53.36 -32.5,0 -43.9,27.41 -43.9,53.36 0,28.38 10.18,53.37 43.9,53.37 29.11,0 41,-27.41 41,-53.37 z m -100.15,-108.86 h 15.25 v 70.05 h 0.48 c 6.55,-17.94 24.74,-27.37 43.42,-27.37 38.09,0 56.25,30.77 56.25,66.18 0,35.42 -18.16,66.19 -56.25,66.19 -20.13,0 -37.6,-10.4 -44.63,-27.37 h -0.48 v 23.73 h -14.04 z m 139.19,46.31 h 15.25 v 66.69 c 0,25.95 18.91,46.32 46.56,44.86 v 15.25 c -22.56,0.97 -39.53,-10.89 -47.29,-31.01 h -0.48 v 29.31 h -14.04 z m 156.41,48.49 c 0.24,-24.5 -20.38,-39.3 -43.67,-39.3 -14.31,0 -27.9,9.46 -27.9,24.74 0,24.5 32.27,24.26 58.23,28.87 4.12,0.72 10.91,1.94 12.85,5.58 h 0.49 z m -66.23,38.32 c 0.48,20.38 14.55,29.11 33.48,29.11 17.95,0 32.75,-5.09 32.75,-25.71 0,-13.83 -7.04,-15.53 -19.65,-16.98 -33,-3.88 -67.17,-5.1 -67.17,-40.27 0,-25.22 18.89,-36.59 41.94,-36.59 24.02,0 34.93,9.19 45.61,25.43 h 0.48 c 0,-13.09 2.42,-21.8 17.92,-21.8 4.12,0 6.54,0.25 9.94,0.97 v 12.83 c -1.21,-0.49 -3.15,-0.97 -4.85,-0.97 -6.06,0 -8.97,3.39 -8.97,9.21 v 66.47 c 0,33.46 -23.98,40.23 -46.06,40.23 -28.63,0 -49.22,-12.58 -50.67,-41.93 z m 64.53,89.95 h -18.92 l -25.48,-34.17 h 12.38 z m 71.75,-14.07 h -15.25 v -37.59 h -21.82 v -12.82 h 21.82 v -85.63 c -0.24,-21.33 6.78,-28.1 27.13,-28.1 4.61,0 8.98,0.48 13.58,0.48 v 13.07 c -4.36,-0.49 -8.73,-0.73 -13.09,-0.73 -10.91,0.73 -12.37,6.55 -12.37,16.5 v 84.41 h 25.46 v 12.82 h -25.46 z m 47.8,-162.69 h 15.25 v 125.1 h -15.25 z m 0,148.66 h 15.25 v 24.46 h -15.25 z m 148.14,-62.82 c -3.4,28.62 -24.01,42.9 -50.69,42.9 -38.31,0 -59.13,-30.29 -59.13,-66.19 0,-35.9 20.82,-66.18 59.13,-66.18 27.89,0 47.54,18.4 51.66,48.48 h -15.28 c -1.94,-20.86 -17.46,-35.66 -36.38,-35.66 -29.34,0 -43.89,26.68 -43.89,53.36 0,26.69 14.55,53.37 43.89,53.37 19.89,0 31.29,-11.4 35.41,-30.08 z m 102.36,-37.35 c 0.24,-24.5 -20.38,-39.3 -43.67,-39.3 -14.31,0 -27.9,9.46 -27.9,24.74 0,24.5 32.27,24.26 58.23,28.87 4.12,0.72 10.92,1.94 12.86,5.58 h 0.48 z m -66.23,38.32 c 0.48,20.38 14.56,29.11 33.48,29.11 17.95,0 32.75,-5.09 32.75,-25.71 0,-13.83 -7.03,-15.53 -19.65,-16.98 -32.99,-3.88 -67.16,-5.1 -67.16,-40.27 0,-25.22 18.88,-36.59 41.93,-36.59 24.02,0 34.94,9.19 45.61,25.43 h 0.48 c 0,-13.09 2.42,-21.8 17.92,-21.8 4.12,0 6.55,0.25 9.94,0.97 v 12.83 c -1.21,-0.49 -3.15,-0.97 -4.85,-0.97 -6.06,0 -8.97,3.39 -8.97,9.21 v 66.47 c 0,33.46 -23.98,40.23 -46.06,40.23 -28.63,0 -49.22,-12.58 -50.67,-41.93 z m 141.38,-86.81 v 25.68 h -20.34 v -25.68 h 20.34" /></g></g></svg>